<?xml version="1.0" encoding="utf-8"?>
<!-- Generator: Adobe Illustrator 16.0.0, SVG Export Plug-In . SVG Version: 6.00 Build 0)  -->
<!DOCTYPE svg PUBLIC "-//W3C//DTD SVG 1.1//EN" "http://www.w3.org/Graphics/SVG/1.1/DTD/svg11.dtd">
<svg version="1.1" id="Layer_1" xmlns="http://www.w3.org/2000/svg" xmlns:xlink="http://www.w3.org/1999/xlink" x="0px" y="0px"
	 width="100px" height="100px" viewBox="0 0 100 100" enable-background="new 0 0 100 100" xml:space="preserve">
<g>
	<path d="M78.808,21.193C70.883,13.269,61.191,9.25,50,9.25c-11.191,0-20.883,4.018-28.808,11.943C13.268,29.118,9.25,38.81,9.25,50
		c0,11.192,4.018,20.884,11.942,28.808C29.116,86.732,38.808,90.75,50,90.75c6.15,0,11.884-1.211,17.048-3.603
		c1.438-0.683,2.784-1.413,4.115-2.231c1.342-0.82,2.544-1.656,3.666-2.549c0.709-0.548,1.42-1.148,2.231-1.881
		c0.604-0.532,1.16-1.089,1.748-1.678C86.732,70.884,90.75,61.191,90.75,50C90.75,38.81,86.732,29.118,78.808,21.193z
		 M77.747,77.748c-0.571,0.572-1.11,1.112-1.685,1.619c-0.789,0.713-1.472,1.29-2.158,1.82c-1.082,0.86-2.234,1.662-3.525,2.451
		c-1.285,0.792-2.585,1.496-3.967,2.152C61.383,88.118,56.015,89.25,50,89.25c-10.78,0-20.115-3.871-27.747-11.503
		C14.62,70.115,10.75,60.78,10.75,50c0-10.778,3.871-20.113,11.503-27.746C29.886,14.62,39.221,10.75,50,10.75
		c10.779,0,20.115,3.871,27.747,11.504C85.38,29.887,89.25,39.222,89.25,50C89.25,60.779,85.38,70.115,77.747,77.748z"/>
	<path d="M65.505,55.778c-0.813-0.811-1.904-1.258-3.072-1.258c-1.222,0-2.375,0.482-3.249,1.356l-3.206,3.212l-0.217-0.122
		c-2.228-1.234-5.279-2.924-8.506-6.16c-3.216-3.222-4.917-6.295-6.16-8.542l-0.112-0.203l3.208-3.215
		c1.768-1.772,1.812-4.612,0.097-6.333L37.13,27.34c-0.812-0.813-1.902-1.261-3.07-1.261c-1.223,0-2.378,0.483-3.254,1.362
		l-2.017,2.032l-0.475,0.59l0.074,0.072c-0.55,0.793-1.01,1.662-1.373,2.594c-0.41,1.078-0.667,2.112-0.784,3.156
		c-0.975,8.109,2.665,15.464,12.563,25.387C50.506,73.009,60.429,73.921,63.19,73.921c0.541,0,0.862-0.032,0.945-0.041
		c1.083-0.129,2.119-0.39,3.167-0.797c0.945-0.372,1.827-0.844,2.63-1.408l0.113,0.09l2.524-2.477
		c1.762-1.772,1.805-4.613,0.095-6.335L65.505,55.778z M71.513,68.225l-1.668,1.637l-0.354,0.276
		c-0.813,0.634-1.734,1.156-2.733,1.549c-0.927,0.36-1.842,0.59-2.791,0.704c-0.063,0.006-0.328,0.031-0.775,0.031
		c-2.616,0-12.031-0.88-23.335-12.209C30.322,50.656,26.806,43.66,27.72,36.059c0.104-0.922,0.332-1.837,0.694-2.791
		c0.392-1.007,0.915-1.933,1.553-2.75l0.165-0.27l1.736-1.75c1.145-1.148,3.107-1.196,4.2-0.1l7.157,7.175
		c1.132,1.136,1.089,3.026-0.097,4.215l-4.013,4.02l0.668,1.185c1.285,2.322,3.044,5.502,6.409,8.873
		c3.376,3.386,6.535,5.135,8.838,6.411l1.21,0.67l4.003-4.011c1.143-1.145,3.106-1.189,4.2-0.098l7.157,7.173
		C72.731,65.149,72.689,67.042,71.513,68.225z"/>
</g>
</svg>
