<?xml version="1.0" encoding="iso-8859-1"?>
<!-- Generator: Adobe Illustrator 18.0.0, SVG Export Plug-In . SVG Version: 6.00 Build 0)  -->
<!DOCTYPE svg PUBLIC "-//W3C//DTD SVG 1.1//EN" "http://www.w3.org/Graphics/SVG/1.1/DTD/svg11.dtd">
<svg version="1.1" id="Capa_1" xmlns="http://www.w3.org/2000/svg" xmlns:xlink="http://www.w3.org/1999/xlink" x="0px" y="0px"
	 viewBox="0 0 301.113 301.113" style="enable-background:new 0 0 301.113 301.113;" xml:space="preserve">
<g>
	<path d="M150.557,0C97.276,0,53.93,43.347,53.93,96.627c0,21.638,11.009,43.705,22.663,67.067
		c12.313,24.68,25.045,50.201,25.045,75.822c0,5.263,3.499,9.704,8.296,11.137c-0.705,1.436-1.111,3.046-1.111,4.754
		c0,3.583,1.748,6.75,4.43,8.72c-2.682,1.97-4.43,5.137-4.43,8.72s1.748,6.75,4.43,8.72c-2.682,1.97-4.43,5.137-4.43,8.72
		c0,5.979,4.847,10.825,10.825,10.825h61.818c5.979,0,10.825-4.847,10.825-10.825c0-3.583-1.748-6.75-4.43-8.72
		c2.682-1.97,4.43-5.137,4.43-8.72s-1.748-6.75-4.43-8.72c2.682-1.97,4.43-5.137,4.43-8.72c0-1.708-0.406-3.317-1.111-4.754
		c4.797-1.433,8.296-5.874,8.296-11.137c0-25.622,12.731-51.142,25.045-75.822c11.654-23.362,22.663-45.429,22.663-67.067
		C247.184,43.347,203.837,0,150.557,0z M203.712,153.314c-11.268,22.584-23.849,47.806-26.832,74.576h-52.646
		c-2.983-26.771-15.564-51.992-26.832-74.576c-10.397-20.841-20.218-40.526-20.218-56.686c0-40.459,32.915-73.374,73.373-73.374
		s73.373,32.915,73.373,73.374C223.93,112.787,214.109,132.472,203.712,153.314z"/>
	<path d="M132.102,92.479c-1.952-2.355-5.448-2.68-7.803-0.726l-21.353,17.724c-1.268,1.053-2.001,2.615-2.001,4.262
		c0,1.649,0.733,3.21,2.001,4.265l21.353,17.723c1.035,0.859,2.289,1.276,3.536,1.276c1.591,0,3.171-0.68,4.267-1.999
		c1.955-2.356,1.633-5.85-0.724-7.803l-16.216-13.461l16.216-13.458C133.734,98.327,134.057,94.833,132.102,92.479z"/>
	<path d="M198.167,109.477l-21.353-17.724c-2.353-1.954-5.849-1.629-7.803,0.726c-1.953,2.354-1.633,5.849,0.724,7.803
		l16.216,13.458L169.735,127.2c-2.356,1.953-2.677,5.447-0.724,7.803c1.096,1.319,2.676,1.999,4.268,1.999
		c1.246,0,2.5-0.417,3.535-1.276l21.353-17.723c1.268-1.055,2.001-2.616,2.001-4.265
		C200.168,112.092,199.436,110.53,198.167,109.477z"/>
	<path d="M162.277,73.265c-2.941-0.85-6.014,0.843-6.867,3.782l-20.354,70.305c-0.851,2.941,0.841,6.013,3.779,6.863
		c0.517,0.149,1.033,0.22,1.545,0.22c2.406,0,4.615-1.575,5.322-4l20.355-70.306C166.907,77.188,165.216,74.116,162.277,73.265z"/>
</g>
<g>
</g>
<g>
</g>
<g>
</g>
<g>
</g>
<g>
</g>
<g>
</g>
<g>
</g>
<g>
</g>
<g>
</g>
<g>
</g>
<g>
</g>
<g>
</g>
<g>
</g>
<g>
</g>
<g>
</g>
</svg>
