<?xml version="1.0" encoding="iso-8859-1"?>
<!-- Generator: Adobe Illustrator 16.0.0, SVG Export Plug-In . SVG Version: 6.00 Build 0)  -->
<!DOCTYPE svg PUBLIC "-//W3C//DTD SVG 1.1//EN" "http://www.w3.org/Graphics/SVG/1.1/DTD/svg11.dtd">
<svg version="1.1" id="Capa_1" xmlns="http://www.w3.org/2000/svg" xmlns:xlink="http://www.w3.org/1999/xlink" x="0px" y="0px"
	 width="31.095px" height="31.096px" viewBox="0 0 31.095 31.096" style="enable-background:new 0 0 31.095 31.096;"
	 xml:space="preserve">
<g>
	<path d="M22.989,24.833c0.422-0.772,0.545-1.705,0.263-2.611c-0.555-1.773-2.439-2.764-4.214-2.211
		c-1.772,0.552-2.763,2.438-2.211,4.211c0.281,0.907,0.911,1.605,1.695,2.002l0.448,1.438l-7.51,2.34l-2.894-9.287l-1.175,0.365
		c-0.461,0.912-1.271,1.646-2.324,1.971c-2.06,0.643-4.248-0.507-4.89-2.566c-0.642-2.059,0.51-4.248,2.567-4.891
		c1.052-0.326,2.136-0.185,3.03,0.303l1.177-0.365l-2.59-8.322l7.512-2.338l0.354,1.134c-0.422,0.772-0.543,1.706-0.262,2.611
		c0.552,1.773,2.438,2.765,4.212,2.212c1.774-0.551,2.767-2.439,2.213-4.212c-0.283-0.906-0.913-1.605-1.698-2.002l-0.354-1.135
		l7.66-2.384l2.72,8.733l-0.794,0.248c-0.771-0.421-1.707-0.544-2.611-0.26c-1.773,0.549-2.767,2.438-2.213,4.211
		c0.553,1.774,2.439,2.765,4.213,2.21c0.905-0.278,1.606-0.912,2.001-1.694l0.796-0.248l2.985,9.591l-7.657,2.384L22.989,24.833z"/>
</g>
<g>
</g>
<g>
</g>
<g>
</g>
<g>
</g>
<g>
</g>
<g>
</g>
<g>
</g>
<g>
</g>
<g>
</g>
<g>
</g>
<g>
</g>
<g>
</g>
<g>
</g>
<g>
</g>
<g>
</g>
</svg>
