<?xml version="1.0" encoding="utf-8"?>
<!-- Generator: Adobe Illustrator 16.0.0, SVG Export Plug-In . SVG Version: 6.00 Build 0)  -->
<!DOCTYPE svg PUBLIC "-//W3C//DTD SVG 1.1//EN" "http://www.w3.org/Graphics/SVG/1.1/DTD/svg11.dtd">
<svg version="1.1" id="Capa_1" xmlns="http://www.w3.org/2000/svg" xmlns:xlink="http://www.w3.org/1999/xlink" x="0px" y="0px"
	 width="595.279px" height="841.891px" viewBox="0 0 595.279 841.891" enable-background="new 0 0 595.279 841.891"
	 xml:space="preserve">
<g>
	<path fill="#010002" d="M451.624,475.404c-4.21,3.733-8.233,7.715-12.547,11.345C427.214,497.698,435.676,491.063,451.624,475.404z
		"/>
	<path fill="#010002" d="M563.301,533.266c-0.892-15.389-5.164-30.134-10.825-43.966c-11.013-26.483-26.981-50.104-44.962-71.735
		c15.824-19.64,30.217-40.647,40.254-64.227c5.662-13.501,10.017-27.832,11.033-42.908c1.099-14.911-1.722-31.128-9.83-44.339
		c-8.357-13.812-21.423-23.58-35.546-29.656c-14.186-6.139-29.241-8.959-44.174-10.162c-22.542-1.618-44.919,0.228-66.799,4.21
		c-25.26-65.43-63.252-107.177-105.684-107.177c-43.364,0-82.042,43.696-107.301,111.678c-23.207-3.65-46.891-5.081-70.636-2.489
		c-14.87,1.701-29.843,5.081-43.759,11.696c-13.895,6.512-26.731,16.923-34.405,30.755c-7.818,13.75-9.976,29.864-8.357,44.754
		c1.576,15.036,7.165,28.993,13.454,42.246c6.032,12.711,17.2,28.576,24.085,39.08c2.198,2.676,15.219,21.351,17.48,23.964
		c-17.233,22.211-32.394,46.413-42.432,73.248c-5.185,14.04-8.876,28.91-9.229,44.34c-0.456,15.242,3.152,31.585,11.884,44.401
		c8.959,13.418,22.231,22.377,36.313,27.706c14.082,5.351,28.993,7.445,43.572,7.923c22.17,0.663,44.007-2.406,65.347-7.218
		c25.26,63.066,62.465,103.195,103.983,103.195c42.701,0,80.881-42.182,106.161-108.276c23.352,4.771,47.242,7.736,71.444,6.16
		c14.6-0.975,29.345-3.588,43.281-9.437c13.895-5.827,26.836-15.243,35.297-28.972C561.186,564.933,564.276,548.487,563.301,533.266
		z M468.402,241.681c13.708,0.394,27.437,2.364,39.983,7.093c12.443,4.604,23.767,12.505,30.942,23.124
		c7.549,11.074,10.598,24.43,10.307,38.138c-0.228,13.729-3.629,27.52-8.44,40.73c-8.523,22.833-21.277,44.111-35.981,63.958
		c-0.062-0.083-0.124-0.166-0.187-0.249c-22.522-26.255-48.134-49.295-75.385-70.2c-4.313-35.007-11.489-67.462-20.987-96.144
		C428.417,243.837,448.492,241.121,468.402,241.681z M417.509,335.191c-15.513-11.261-31.356-22.066-47.782-31.917
		c-15.844-9.25-32.228-17.669-48.859-25.591c21.236-9.312,42.866-17.628,65.098-23.974c4.065-1.12,8.213-2.074,12.319-3.09
		C406.601,275.982,413.237,304.374,417.509,335.191z M296.769,134.462c37.952,0,71.963,38.18,95.169,98.259
		c-3.608,0.788-7.258,1.452-10.846,2.323c-29.843,7.362-58.648,17.959-86.418,30.714C266.47,254,237.312,244.439,207.24,238.134
		c-2.385-0.498-4.832-0.83-7.237-1.286C223.209,174.343,257.967,134.462,296.769,134.462z M193.885,254.933
		c3.049,0.664,6.118,1.224,9.166,1.95c22.46,5.558,44.381,13.106,65.929,21.692c-16.363,8.523-32.456,17.503-47.969,27.333
		c-15.596,10.12-30.631,21.112-45.313,32.518C179.721,308.148,185.942,280.089,193.885,254.933z M81.14,410.649
		c-7.464-11.163-6.71-10.07-24.382-40.174c-7.124-12.136-14.597-37.793-15.343-51.481c-0.768-13.646,1.866-27.292,8.876-38.366
		c6.968-11.116,17.876-19.225,30.216-24.327c12.34-5.164,25.985-7.611,39.715-8.523c20.987-1.348,42.182,0.913,63.128,4.895
		c-9.125,28.64-15.865,60.951-19.909,95.604c-26.836,22.045-51.93,46.206-73.746,73.54c-0.063,0.083-0.125,0.166-0.187,0.248
		C85.841,417.116,82.965,413.076,81.14,410.649z M163.378,492.586c-21.167-16.832-29.701-26.016-60.764-56.253
		c0.643-0.768,1.244-1.576,1.888-2.344c17.005-20.074,36.146-38.407,56.201-55.579c-0.934,13.937-1.576,28.06-1.576,42.535
		C159.127,444.898,160.889,470.271,163.378,492.586z M127.854,615.639c-14.04-1.12-27.997-3.837-40.586-9.332
		c-12.484-5.351-23.621-14.061-30.153-25.053c-14.02-23.165-8.669-52.468,1.99-77.396c9.976-23.413,25.464-45.63,41.869-65.58
		c20.786,19.479,21.333,20,41.819,39.608c1.727,1.653,18.69,15.171,20.515,16.56c5.227,43.096,15.086,84.092,27.944,117.274
		C170.201,615.494,148.882,617.194,127.854,615.639z M296.748,707.428c-37.143,0-70.49-36.687-93.655-94.63
		c3.422-0.851,6.885-1.639,10.266-2.571c29.967-8.545,58.877-20.096,86.832-33.639c28.412,12.547,57.694,23.082,87.932,30.548
		c1.41,0.332,2.841,0.581,4.272,0.913C369.167,668.792,334.948,707.428,296.748,707.428z M393.618,604.959
		c-1.598-0.312-3.215-0.519-4.812-0.851c-30.092-6.305-59.333-16.052-87.683-28.018c4.104-1.987,42.861-22.703,68.117-36.21
		c-0.048-0.007-0.098-0.006-0.145-0.014c-17.249,9.002-63.723,33.383-68.927,35.809c-24.265-10.308-47.906-22.148-70.656-35.442
		c22.46,13.314,45.791,25.28,69.702,35.898c-27.914,12.962-56.782,23.746-86.646,31.087c-3.567,0.851-7.176,1.515-10.784,2.281
		c-11.676-30.112-20.655-65.616-25.965-104.833c29.841,17.352,47.818,30.444-0.345-2.91c-3.422-25.924-5.192-52.4-5.192-80.812
		c0-17.877,0.829-35.297,2.219-52.282c19.287-15.782,39.486-30.589,60.453-43.903c20.055-12.879,40.896-24.472,62.195-35.09
		c21.609,9.851,42.825,20.718,63.314,32.871c21.568,12.609,42.41,26.773,62.361,41.975c0.954,10.784,1.078,79.719,1.472,90.896
		C419.292,511.946,409.027,563.461,393.618,604.959z M543.33,572.647c-6.181,11.241-17.006,20.345-29.325,26.131
		c-12.359,5.952-26.192,9.146-40.191,10.764c-23.04,2.53-46.517,1.037-69.64-2.717c15.74-42.432,26.214-94.299,29.283-151.06
		c-0.29-8.068-0.332-74.348-0.913-82.229c20.614,16.466,40.42,34.115,58.131,53.609c0.912,0.996,1.741,2.033,2.634,3.028
		c-14.621,17.731-30.113,33.866-41.685,45.23c15.264-13.584,29.863-27.872,43.385-43.261c17.13,19.35,32.726,40.171,43.53,63.232
		C550.049,519.931,556.478,549.006,543.33,572.647z"/>
</g>
</svg>
