<?xml version="1.0" encoding="utf-8"?>
<!-- Generator: Adobe Illustrator 16.0.0, SVG Export Plug-In . SVG Version: 6.00 Build 0)  -->
<!DOCTYPE svg PUBLIC "-//W3C//DTD SVG 1.1//EN" "http://www.w3.org/Graphics/SVG/1.1/DTD/svg11.dtd">
<svg version="1.1" id="Capa_1" xmlns="http://www.w3.org/2000/svg" xmlns:xlink="http://www.w3.org/1999/xlink" x="0px" y="0px"
	 width="100px" height="100px" viewBox="0 0 100 100" enable-background="new 0 0 100 100" xml:space="preserve">
<g>
	<path d="M94,6H6c-3.313,0-6,2.687-6,6v76c0,3.313,2.687,6,6,6h88c3.314,0,6-2.688,6-6V12C100,8.686,97.314,6,94,6z M79,10
		c2.205,0,4,1.794,4,4s-1.795,4-4,4s-4-1.794-4-4S76.795,10,79,10z M68,10c2.205,0,4,1.794,4,4s-1.795,4-4,4s-4-1.794-4-4
		S65.795,10,68,10z M94,88H6V22h88V88z M90,18c-2.205,0-4-1.794-4-4s1.795-4,4-4s4,1.794,4,4S92.205,18,90,18z"/>
</g>
<g>
	<path d="M44.935,65.513H22.761l-6.57,0.328v4.523h43.296v-4.852H46.235H44.935z M52.039,68.491H38.361v-0.906h13.678V68.491z"/>
	<polygon points="26.182,37.429 64.994,37.429 64.994,38.542 68.415,38.542 68.415,34.009 22.761,34.009 22.761,64.115 
		59.482,64.115 59.482,60.694 26.182,60.694 	"/>
	<path d="M61.4,76.03h23.767V40.375H61.4V76.03z M73.784,74.241c-0.634,0-1.142-0.515-1.142-1.145c0-0.634,0.512-1.146,1.142-1.146
		c0.633,0,1.147,0.512,1.147,1.146C74.932,73.727,74.417,74.241,73.784,74.241z M64.833,43.811h16.902l-0.003,26.308H64.833V43.811z
		"/>
</g>
</svg>
