<?xml version="1.0" encoding="utf-8"?>
<!-- Generator: Adobe Illustrator 17.0.0, SVG Export Plug-In . SVG Version: 6.00 Build 0)  -->
<!DOCTYPE svg PUBLIC "-//W3C//DTD SVG 1.1//EN" "http://www.w3.org/Graphics/SVG/1.1/DTD/svg11.dtd">
<svg version="1.1" id="Layer_1" xmlns="http://www.w3.org/2000/svg" xmlns:xlink="http://www.w3.org/1999/xlink" x="0px" y="0px"
	 width="836px" height="670px" viewBox="0 0 836 670" enable-background="new 0 0 836 670" xml:space="preserve">
<g>
	<g>
		<g>
			<path fill="#F7F7F7" d="M678,0H8C3.582,0,0,3.082,0,7.5v45h686v-45C686,3.082,682.418,0,678,0z"/>
		</g>
		<g>
			<circle fill="#CCCCCC" cx="33.648" cy="27.5" r="6.578"/>
		</g>
		<g>
			<circle fill="#CCCCCC" cx="59.96" cy="27.5" r="6.578"/>
		</g>
		<g>
			<circle fill="#CCCCCC" cx="86.272" cy="27.5" r="6.578"/>
		</g>
	</g>
	<g>
		<path fill="#E6E6E6" d="M536,472c0,4.418-3.582,8-8,8H328c-4.418,0-8-3.582-8-8v-98c0-4.418,3.582-8,8-8h200c4.418,0,8,3.582,8,8
			V472z"/>
	</g>
	<g>
		<path fill="#9D8AC7" d="M536,466.5c0,4.418-3.582,9.5-8,9.5h-66V364h66c4.418,0,8,2.082,8,6.5V466.5z"/>
	</g>
	<g>
		<g>
			<path fill="#B3B3B3" d="M416,396h-74c-2.209,0-4-1.791-4-4s1.791-4,4-4h74c2.209,0,4,1.791,4,4S418.209,396,416,396z"/>
		</g>
	</g>
	<g>
		<g>
			<path fill="#EBEBEB" d="M372,456h-30c-2.209,0-4-1.791-4-4s1.791-4,4-4h30c2.209,0,4,1.791,4,4S374.209,456,372,456z"/>
		</g>
	</g>
	<g>
		<g>
			<rect y="52.5" fill="#333333" width="62" height="580"/>
		</g>
		<g>
			<rect y="122" fill="#292929" width="62" height="64"/>
		</g>
		<g>
			<circle fill="#414245" cx="30" cy="87.5" r="18"/>
		</g>
		<g>
			<circle fill="#414245" cx="30" cy="153.5" r="18"/>
		</g>
		<g>
			<circle fill="#414245" cx="30" cy="219.5" r="18"/>
		</g>
		<g>
			<circle fill="#414245" cx="30" cy="285.5" r="18"/>
		</g>
		<g>
			<circle fill="#414245" cx="30" cy="353.5" r="18"/>
		</g>
	</g>
	<g>
		<rect y="52" fill="none" width="686" height="580"/>
	</g>
	<g>
		<g>
			<path fill="#EBEBEB" d="M422,456h-30c-2.209,0-4-1.791-4-4s1.791-4,4-4h30c2.209,0,4,1.791,4,4S424.209,456,422,456z"/>
		</g>
	</g>
	<g>
		<g>
			<rect x="62" y="52.5" fill="#EAEAEA" width="624" height="580"/>
		</g>
		<g>
			<g>
				<path fill="#FFFFFF" d="M668,250c0,4.418-3.582,8-8,8h-96c-4.418,0-8-3.582-8-8V108c0-4.418,3.582-8,8-8h96c4.418,0,8,3.582,8,8
					V250z"/>
			</g>
			<g>
				<g>
					<rect x="556" y="128" fill="#F2F2F2" width="112" height="8"/>
				</g>
			</g>
			<g>
				<g>
					<rect x="556" y="160" fill="#F2F2F2" width="112" height="8"/>
				</g>
			</g>
			<g>
				<g>
					<rect x="556" y="192" fill="#F2F2F2" width="112" height="8"/>
				</g>
			</g>
			<g>
				<g>
					<rect x="556" y="224" fill="#F2F2F2" width="112" height="8"/>
				</g>
			</g>
		</g>
		<g>
			<g>
				<circle fill="#DBDBDB" cx="652" cy="77.5" r="10"/>
			</g>
			<g>
				<g>
					<path fill="#DBDBDB" d="M156,82H92c-2.209,0-4-1.791-4-4s1.791-4,4-4h64c2.209,0,4,1.791,4,4S158.209,82,156,82z"/>
				</g>
			</g>
			<g>
				<g>
					<path fill="#DBDBDB" d="M624,82h-14c-2.209,0-4-1.791-4-4s1.791-4,4-4h14c2.209,0,4,1.791,4,4S626.209,82,624,82z"/>
				</g>
			</g>
		</g>
		<g>
			<g>
				<path fill="#E6E6E6" d="M302,208c0,4.418-3.582,8-8,8H92c-4.418,0-8-3.582-8-8v-98c0-4.418,3.582-8,8-8h202c4.418,0,8,3.582,8,8
					V208z"/>
			</g>
			<g>
				<path fill="#FFFFFF" d="M302,204c0,4.418-3.582,8-8,8H92c-4.418,0-8-3.582-8-8v-96c0-4.418,3.582-8,8-8h202c4.418,0,8,3.582,8,8
					V204z"/>
			</g>
			<g>
				<path fill="#39ADD1" d="M302,204.5c0,4.418-2.582,7.5-7,7.5h-69V100h69c4.418,0,7,2.082,7,6.5V204.5z"/>
			</g>
			<g>
				<g>
					<path fill="#B3B3B3" d="M180,132h-74c-2.209,0-4-1.791-4-4s1.791-4,4-4h74c2.209,0,4,1.791,4,4S182.209,132,180,132z"/>
				</g>
			</g>
			<g>
				<g>
					<path fill="#EBEBEB" d="M136,192h-30c-2.209,0-4-1.791-4-4s1.791-4,4-4h30c2.209,0,4,1.791,4,4S138.209,192,136,192z"/>
				</g>
			</g>
			<g>
				<g>
					<path fill="#EBEBEB" d="M186,192h-30c-2.209,0-4-1.791-4-4s1.791-4,4-4h30c2.209,0,4,1.791,4,4S188.209,192,186,192z"/>
				</g>
			</g>
		</g>
		<g>
			<g>
				<path fill="#E6E6E6" d="M538,208c0,4.418-3.582,8-8,8H328c-4.418,0-8-3.582-8-8v-98c0-4.418,3.582-8,8-8h202
					c4.418,0,8,3.582,8,8V208z"/>
			</g>
			<g>
				<path fill="#FFFFFF" d="M538,204c0,4.418-3.582,8-8,8H328c-4.418,0-8-3.582-8-8v-96c0-4.418,3.582-8,8-8h202
					c4.418,0,8,3.582,8,8V204z"/>
			</g>
			<g>
				<path fill="#2C6E9A" d="M538,204.5c0,4.418-3.582,7.5-8,7.5h-68V100h68c4.418,0,8,2.082,8,6.5V204.5z"/>
			</g>
			<g>
				<g>
					<path fill="#B3B3B3" d="M416,132h-74c-2.209,0-4-1.791-4-4s1.791-4,4-4h74c2.209,0,4,1.791,4,4S418.209,132,416,132z"/>
				</g>
			</g>
			<g>
				<g>
					<path fill="#EBEBEB" d="M372,192h-30c-2.209,0-4-1.791-4-4s1.791-4,4-4h30c2.209,0,4,1.791,4,4S374.209,192,372,192z"/>
				</g>
			</g>
			<g>
				<g>
					<path fill="#EBEBEB" d="M422,192h-30c-2.209,0-4-1.791-4-4s1.791-4,4-4h30c2.209,0,4,1.791,4,4S424.209,192,422,192z"/>
				</g>
			</g>
		</g>
		<g>
			<g>
				<path fill="#E6E6E6" d="M302,340c0,4.418-3.582,8-8,8H92c-4.418,0-8-3.582-8-8v-98c0-4.418,3.582-8,8-8h202c4.418,0,8,3.582,8,8
					V340z"/>
			</g>
			<g>
				<path fill="#FFFFFF" d="M302,336c0,4.418-3.582,8-8,8H92c-4.418,0-8-3.582-8-8v-96c0-4.418,3.582-8,8-8h202c4.418,0,8,3.582,8,8
					V336z"/>
			</g>
			<g>
				<path fill="#913B53" d="M302,336.5c0,4.418-3.582,7.5-8,7.5h-68V232h68c4.418,0,8,2.082,8,6.5V336.5z"/>
			</g>
			<g>
				<g>
					<path fill="#B3B3B3" d="M180,266h-74c-2.209,0-4-1.791-4-4s1.791-4,4-4h74c2.209,0,4,1.791,4,4S182.209,266,180,266z"/>
				</g>
			</g>
			<g>
				<g>
					<path fill="#EBEBEB" d="M136,324h-30c-2.209,0-4-1.791-4-4s1.791-4,4-4h30c2.209,0,4,1.791,4,4S138.209,324,136,324z"/>
				</g>
			</g>
			<g>
				<g>
					<path fill="#EBEBEB" d="M186,324h-30c-2.209,0-4-1.791-4-4s1.791-4,4-4h30c2.209,0,4,1.791,4,4S188.209,324,186,324z"/>
				</g>
			</g>
		</g>
		<g>
			<g>
				<path fill="#E6E6E6" d="M538,340c0,4.418-3.582,8-8,8H328c-4.418,0-8-3.582-8-8v-98c0-4.418,3.582-8,8-8h202
					c4.418,0,8,3.582,8,8V340z"/>
			</g>
			<g>
				<path fill="#FFFFFF" d="M538,336c0,4.418-3.582,8-8,8H328c-4.418,0-8-3.582-8-8v-96c0-4.418,3.582-8,8-8h202
					c4.418,0,8,3.582,8,8V336z"/>
			</g>
			<g>
				<path fill="#E15258" d="M538,334.5c0,4.418-3.582,9.5-8,9.5h-68V232h68c4.418,0,8,2.082,8,6.5V334.5z"/>
			</g>
			<g>
				<g>
					<path fill="#B3B3B3" d="M416,264h-74c-2.209,0-4-1.791-4-4s1.791-4,4-4h74c2.209,0,4,1.791,4,4S418.209,264,416,264z"/>
				</g>
			</g>
			<g>
				<g>
					<path fill="#EBEBEB" d="M372,324h-30c-2.209,0-4-1.791-4-4s1.791-4,4-4h30c2.209,0,4,1.791,4,4S374.209,324,372,324z"/>
				</g>
			</g>
			<g>
				<g>
					<path fill="#EBEBEB" d="M422,324h-30c-2.209,0-4-1.791-4-4s1.791-4,4-4h30c2.209,0,4,1.791,4,4S424.209,324,422,324z"/>
				</g>
			</g>
		</g>
		<g>
			<g>
				<path fill="#E6E6E6" d="M302,472c0,4.418-3.582,8-8,8H92c-4.418,0-8-3.582-8-8v-98c0-4.418,3.582-8,8-8h202c4.418,0,8,3.582,8,8
					V472z"/>
			</g>
			<g>
				<path fill="#FFFFFF" d="M302,468c0,4.418-3.582,8-8,8H92c-4.418,0-8-3.582-8-8v-96c0-4.418,3.582-8,8-8h202c4.418,0,8,3.582,8,8
					V468z"/>
			</g>
			<g>
				<path fill="#F9845B" d="M302,468.5c0,4.418-3.582,7.5-8,7.5h-68V364h68c4.418,0,8,2.082,8,6.5V468.5z"/>
			</g>
			<g>
				<g>
					<path fill="#B3B3B3" d="M180,396h-74c-2.209,0-4-1.791-4-4s1.791-4,4-4h74c2.209,0,4,1.791,4,4S182.209,396,180,396z"/>
				</g>
			</g>
			<g>
				<g>
					<path fill="#EBEBEB" d="M136,456h-30c-2.209,0-4-1.791-4-4s1.791-4,4-4h30c2.209,0,4,1.791,4,4S138.209,456,136,456z"/>
				</g>
			</g>
			<g>
				<g>
					<path fill="#EBEBEB" d="M186,456h-30c-2.209,0-4-1.791-4-4s1.791-4,4-4h30c2.209,0,4,1.791,4,4S188.209,456,186,456z"/>
				</g>
			</g>
		</g>
		<g>
			<g>
				<path fill="#E6E6E6" d="M538,472c0,4.418-3.582,8-8,8H328c-4.418,0-8-3.582-8-8v-98c0-4.418,3.582-8,8-8h202
					c4.418,0,8,3.582,8,8V472z"/>
			</g>
			<g>
				<path fill="#FFFFFF" d="M538,468c0,4.418-3.582,8-8,8H328c-4.418,0-8-3.582-8-8v-96c0-4.418,3.582-8,8-8h202
					c4.418,0,8,3.582,8,8V468z"/>
			</g>
			<g>
				<path fill="#E0AB18" d="M538,468.5c0,4.418-3.582,7.5-8,7.5h-68V364h68c4.418,0,8,2.082,8,6.5V468.5z"/>
			</g>
			<g>
				<g>
					<path fill="#B3B3B3" d="M416,396h-74c-2.209,0-4-1.791-4-4s1.791-4,4-4h74c2.209,0,4,1.791,4,4S418.209,396,416,396z"/>
				</g>
			</g>
			<g>
				<g>
					<path fill="#EBEBEB" d="M372,456h-30c-2.209,0-4-1.791-4-4s1.791-4,4-4h30c2.209,0,4,1.791,4,4S374.209,456,372,456z"/>
				</g>
			</g>
			<g>
				<g>
					<path fill="#EBEBEB" d="M422,456h-30c-2.209,0-4-1.791-4-4s1.791-4,4-4h30c2.209,0,4,1.791,4,4S424.209,456,422,456z"/>
				</g>
			</g>
		</g>
		<g>
			<g>
				<path fill="#E6E6E6" d="M302,604c0,4.418-3.582,8-8,8H92c-4.418,0-8-3.582-8-8v-98c0-4.418,3.582-8,8-8h202c4.418,0,8,3.582,8,8
					V604z"/>
			</g>
			<g>
				<path fill="#FFFFFF" d="M302,600c0,4.418-3.582,8-8,8H92c-4.418,0-8-3.582-8-8v-96c0-4.418,3.582-8,8-8h202c4.418,0,8,3.582,8,8
					V600z"/>
			</g>
			<g>
				<path fill="#6E5E8F" d="M302,600.5c0,4.418-3.582,7.5-8,7.5h-68V496h68c4.418,0,8,2.082,8,6.5V600.5z"/>
			</g>
			<g>
				<g>
					<path fill="#B3B3B3" d="M180,528h-74c-2.209,0-4-1.791-4-4s1.791-4,4-4h74c2.209,0,4,1.791,4,4S182.209,528,180,528z"/>
				</g>
			</g>
			<g>
				<g>
					<path fill="#EBEBEB" d="M136,588h-30c-2.209,0-4-1.791-4-4s1.791-4,4-4h30c2.209,0,4,1.791,4,4S138.209,588,136,588z"/>
				</g>
			</g>
			<g>
				<g>
					<path fill="#EBEBEB" d="M186,588h-30c-2.209,0-4-1.791-4-4s1.791-4,4-4h30c2.209,0,4,1.791,4,4S188.209,588,186,588z"/>
				</g>
			</g>
		</g>
		<g>
			<g>
				<path fill="#E6E6E6" d="M536,604c0,4.418-3.582,8-8,8H328c-4.418,0-8-3.582-8-8v-98c0-4.418,3.582-8,8-8h200
					c4.418,0,8,3.582,8,8V604z"/>
			</g>
			<g>
				<path fill="#FFFFFF" d="M536,600c0,4.418-3.582,8-8,8H328c-4.418,0-8-3.582-8-8v-96c0-4.418,3.582-8,8-8h200
					c4.418,0,8,3.582,8,8V600z"/>
			</g>
			<g>
				<path fill="#53BBB4" d="M536,598.5c0,4.418-3.582,9.5-8,9.5h-66V496h66c4.418,0,8,2.082,8,6.5V598.5z"/>
			</g>
			<g>
				<g>
					<path fill="#B3B3B3" d="M416,528h-74c-2.209,0-4-1.791-4-4s1.791-4,4-4h74c2.209,0,4,1.791,4,4S418.209,528,416,528z"/>
				</g>
			</g>
			<g>
				<g>
					<path fill="#EBEBEB" d="M372,588h-30c-2.209,0-4-1.791-4-4s1.791-4,4-4h30c2.209,0,4,1.791,4,4S374.209,588,372,588z"/>
				</g>
			</g>
			<g>
				<g>
					<path fill="#EBEBEB" d="M422,588h-30c-2.209,0-4-1.791-4-4s1.791-4,4-4h30c2.209,0,4,1.791,4,4S424.209,588,422,588z"/>
				</g>
			</g>
		</g>
	</g>
	<g>
		<g>
			<rect x="389" y="348" fill="#333333" width="44" height="284"/>
		</g>
		<g>
			<rect x="389" y="450.5" fill="#292929" width="44" height="43"/>
		</g>
		<g>
			<g>
				<circle fill="#414245" cx="411" cy="423.734" r="12.644"/>
			</g>
			<g>
				<circle fill="#414245" cx="411" cy="377.734" r="12.644"/>
			</g>
			<g>
				<circle fill="#414245" cx="411" cy="472.094" r="12.644"/>
			</g>
		</g>
	</g>
	<g>
		<g opacity="0.05">
			<path d="M827,646.123c0,12.473-10.064,22.377-22.477,22.377H357.478c-12.414,0-22.478-9.904-22.478-22.377V331.585
				c0-12.473,10.064-22.085,22.478-22.085h447.045c12.414,0,22.477,9.612,22.477,22.085V646.123z"/>
		</g>
		<g>
			<path fill="#0C0C0C" d="M792,355.5v268H390v-268H792 M813.96,309.5H367.22c-12.414,0-23.22,10.075-23.22,22.479v313.025
				c0,12.404,10.806,24.495,23.22,24.495h446.74c12.414,0,22.04-12.091,22.04-24.495V331.979
				C836,319.575,826.374,309.5,813.96,309.5L813.96,309.5z"/>
		</g>
		<g>
			<ellipse fill="#282828" cx="813.264" cy="488.354" rx="13.346" ry="13.335"/>
		</g>
	</g>
	<g>
		<g>
			<defs>
				<polyline id="SVGID_1_" points="791,355.5 791,623.5 433,623.5 433,355.5 791,355.5 				"/>
			</defs>
			<clipPath id="SVGID_2_">
				<use xlink:href="#SVGID_1_"  overflow="visible"/>
			</clipPath>
		</g>
		<g>
			<defs>
				<polyline id="SVGID_3_" points="792,355.5 792,623.5 433,623.5 433,355.5 791,355.5 				"/>
			</defs>
			<use xlink:href="#SVGID_3_"  overflow="visible" fill="#F2F2F2"/>
			<clipPath id="SVGID_4_">
				<use xlink:href="#SVGID_3_"  overflow="visible"/>
			</clipPath>
		</g>
		<g>
			<g>
				<path fill="#DBDBDB" d="M517,375.5h-64c-2.209,0-4-1.791-4-4s1.791-4,4-4h64c2.209,0,4,1.791,4,4S519.209,375.5,517,375.5z"/>
			</g>
			<g>
				<g>
					<path fill="#39ADD1" d="M551,454.291c0,0.477-0.6,1.209-1.031,1.209h-103.39c-0.428,0-0.578-0.731-0.578-1.209v-67.633
						c0-0.478,0.15-1.159,0.578-1.159h103.39c0.431,0,1.031,0.681,1.031,1.159V454.291z"/>
				</g>
				<g opacity="0.1">
					<path d="M514.275,443.5h-32c-2.209,0-4-1.791-4-4s1.791-4,4-4h32c2.209,0,4,1.791,4,4S516.484,443.5,514.275,443.5z"/>
				</g>
			</g>
			<g>
				<g>
					<path fill="#E15258" d="M665,454.291c0,0.477-0.808,1.209-1.239,1.209h-103.39c-0.428,0-0.371-0.731-0.371-1.209v-67.633
						c0-0.478-0.057-1.159,0.371-1.159h103.39c0.431,0,1.239,0.681,1.239,1.159V454.291z"/>
				</g>
				<g opacity="0.1">
					<path d="M630.067,443.5h-36c-2.209,0-4-1.791-4-4s1.791-4,4-4h36c2.209,0,4,1.791,4,4S632.276,443.5,630.067,443.5z"/>
				</g>
			</g>
			<g>
				<g>
					<path fill="#F9845B" d="M778,454.291c0,0.477-0.016,1.209-0.447,1.209h-103.39c-0.428,0-1.163-0.731-1.163-1.209v-67.633
						c0-0.478,0.735-1.159,1.163-1.159h103.39c0.431,0,0.447,0.681,0.447,1.159V454.291z"/>
				</g>
				<g opacity="0.1">
					<path d="M737.86,443.5h-24c-2.209,0-4-1.791-4-4s1.791-4,4-4h24c2.209,0,4,1.791,4,4S740.069,443.5,737.86,443.5z"/>
				</g>
			</g>
			<g>
				<g>
					<path fill="#6E5E8F" d="M551,532.998c0,0.48-0.6,0.502-1.031,0.502h-103.39c-0.428,0-0.578-0.022-0.578-0.502v-67.631
						c0-0.479,0.15-0.867,0.578-0.867h103.39c0.431,0,1.031,0.388,1.031,0.867V532.998z"/>
				</g>
				<g opacity="0.1">
					<path d="M517.275,521.5h-38c-2.209,0-4-1.791-4-4s1.791-4,4-4h38c2.209,0,4,1.791,4,4S519.484,521.5,517.275,521.5z"/>
				</g>
			</g>
			<g>
				<g>
					<path fill="#53BBB4" d="M665,532.998c0,0.48-0.808,0.502-1.239,0.502h-103.39c-0.428,0-0.371-0.022-0.371-0.502v-67.631
						c0-0.479-0.057-0.867,0.371-0.867h103.39c0.431,0,1.239,0.388,1.239,0.867V532.998z"/>
				</g>
				<g opacity="0.1">
					<path d="M625.067,521.5h-26c-2.209,0-4-1.791-4-4s1.791-4,4-4h26c2.209,0,4,1.791,4,4S627.276,521.5,625.067,521.5z"/>
				</g>
			</g>
			<g>
				<g>
					<path fill="#E0AB18" d="M674.163,533.5c-0.428,0-1.163-0.022-1.163-0.502v-67.631c0-0.479,0.735-0.867,1.163-0.867h103.39
						c0.431,0,0.447,0.388,0.447,0.867v67.631c0,0.48-0.016,0.502-0.447,0.502H674.163z"/>
				</g>
				<g opacity="0.1">
					<path d="M742.86,521.5h-34c-2.209,0-4-1.791-4-4s1.791-4,4-4h34c2.209,0,4,1.791,4,4S745.069,521.5,742.86,521.5z"/>
				</g>
			</g>
			<g>
				<path fill="#DBDBDB" d="M517,571.5h-64c-2.209,0-4-1.791-4-4s1.791-4,4-4h64c2.209,0,4,1.791,4,4S519.209,571.5,517,571.5z"/>
			</g>
			<g>
				<g>
					<path fill="#FFFFFF" d="M549.969,581.5H446.578c-0.428,0-0.578,0.431-0.578,0.91v41.09h105v-41.09
						C551,581.931,550.4,581.5,549.969,581.5z"/>
				</g>
				<g>
					<path fill="#FFFFFF" d="M663.761,581.5h-103.39c-0.428,0-0.371,0.431-0.371,0.91v41.09h105v-41.09
						C665,581.931,664.192,581.5,663.761,581.5z"/>
				</g>
				<g>
					<path fill="#FFFFFF" d="M777.553,581.5h-103.39c-0.428,0-1.163,0.431-1.163,0.91v41.09h105v-41.09
						C778,581.931,777.984,581.5,777.553,581.5z"/>
				</g>
			</g>
		</g>
	</g>
</g>
</svg>
