<?xml version="1.0" encoding="utf-8"?>
<!-- Generator: Adobe Illustrator 16.0.0, SVG Export Plug-In . SVG Version: 6.00 Build 0)  -->
<!DOCTYPE svg PUBLIC "-//W3C//DTD SVG 1.1//EN" "http://www.w3.org/Graphics/SVG/1.1/DTD/svg11.dtd">
<svg version="1.1" id="Layer_1" xmlns="http://www.w3.org/2000/svg" xmlns:xlink="http://www.w3.org/1999/xlink" x="0px" y="0px"
	 width="100px" height="100px" viewBox="0 0 100 100" enable-background="new 0 0 100 100" xml:space="preserve">
<path d="M90.75,50c0-8.836-2.503-16.756-7.44-23.54c0,0,0-0.001,0-0.001c-0.001-0.001-0.002-0.002-0.003-0.004l0,0l0,0
	c-1.316-1.831-2.789-3.553-4.499-5.264C70.885,13.268,61.193,9.25,50,9.25s-20.885,4.018-28.803,11.936
	c-1.752,1.72-3.282,3.513-4.676,5.481c0,0,0,0,0,0c0,0,0,0.001-0.001,0.002c0,0-0.001,0.001-0.001,0.001v0
	C11.695,33.403,9.25,41.252,9.25,50c0,5.858,1.117,11.379,3.32,16.41c0,0,0,0.001,0.001,0.001v0
	c1.983,4.488,4.883,8.659,8.621,12.397C29.115,86.732,38.807,90.75,50,90.75c6.149,0,11.883-1.211,17.047-3.603
	c1.431-0.678,2.777-1.408,4.121-2.234c2.709-1.69,5.28-3.745,7.64-6.104c2.36-2.361,4.402-4.896,6.073-7.54
	c0.967-1.569,1.834-3.236,2.653-5.097c0,0,0-0.001,0-0.002c0-0.001,0.001-0.001,0.001-0.002C89.668,61.235,90.75,55.795,90.75,50z
	 M86.524,64.663L63.812,46.847l18.774-18.775C86.994,34.433,89.25,41.798,89.25,50C89.25,55.237,88.326,60.161,86.524,64.663z
	 M22.252,22.252C29.884,14.62,39.219,10.75,50,10.75s20.116,3.87,27.747,11.502c1.493,1.493,2.79,2.997,3.963,4.574L62.153,46.385
	l-3.187,3.187c-6.172,6.14-12.172,6.139-18.34,0.004l-4.113-4.148c0,0,0,0,0,0c0,0-0.001-0.001-0.001-0.002L18.118,27.031
	C19.361,25.335,20.712,23.763,22.252,22.252z M17.25,28.285l17.638,17.637L13.552,64.845C11.7,60.264,10.75,55.279,10.75,50
	C10.75,41.886,12.951,34.593,17.25,28.285z M83.608,70.475c-1.607,2.544-3.58,4.991-5.861,7.273c-2.279,2.28-4.76,4.263-7.369,5.89
	c-1.293,0.794-2.592,1.499-3.967,2.151C61.382,88.118,56.014,89.25,50,89.25c-10.781,0-20.116-3.87-27.748-11.502
	c-3.468-3.468-6.178-7.32-8.078-11.45l21.774-19.312l3.617,3.648c3.394,3.375,6.811,5.063,10.229,5.063s6.836-1.688,10.231-5.064
	l2.718-2.718l23.177,18.18C85.2,67.679,84.441,69.123,83.608,70.475z"/>
</svg>
