<?xml version="1.0" encoding="utf-8"?>
<!-- Generator: Adobe Illustrator 16.0.0, SVG Export Plug-In . SVG Version: 6.00 Build 0)  -->
<!DOCTYPE svg PUBLIC "-//W3C//DTD SVG 1.1//EN" "http://www.w3.org/Graphics/SVG/1.1/DTD/svg11.dtd">
<svg version="1.1" id="Layer_1" xmlns="http://www.w3.org/2000/svg" xmlns:xlink="http://www.w3.org/1999/xlink" x="0px" y="0px"
	 width="100px" height="100px" viewBox="0 0 100 100" enable-background="new 0 0 100 100" xml:space="preserve">
<g>
	<path d="M78.808,21.193C70.883,13.269,61.191,9.25,50,9.25c-11.191,0-20.883,4.018-28.808,11.943C13.268,29.118,9.25,38.81,9.25,50
		c0,11.192,4.018,20.884,11.942,28.808C29.116,86.732,38.808,90.75,50,90.75c6.15,0,11.884-1.211,17.048-3.603
		c1.438-0.683,2.784-1.413,4.115-2.231c1.342-0.82,2.544-1.656,3.666-2.549c0.709-0.548,1.42-1.148,2.231-1.881
		c0.604-0.532,1.16-1.089,1.748-1.678C86.732,70.884,90.75,61.191,90.75,50C90.75,38.81,86.732,29.118,78.808,21.193z
		 M77.747,77.748c-0.571,0.572-1.11,1.112-1.685,1.619c-0.789,0.713-1.472,1.29-2.158,1.82c-1.082,0.86-2.234,1.662-3.525,2.451
		c-1.285,0.792-2.585,1.496-3.967,2.152C61.383,88.118,56.015,89.25,50,89.25c-10.78,0-20.115-3.871-27.747-11.503
		C14.62,70.115,10.75,60.78,10.75,50c0-10.778,3.871-20.113,11.503-27.746C29.886,14.62,39.221,10.75,50,10.75
		c10.779,0,20.115,3.871,27.747,11.504C85.38,29.887,89.25,39.222,89.25,50C89.25,60.779,85.38,70.115,77.747,77.748z"/>
	<path d="M68.813,51.371c0-5.321-1.918-9.939-5.703-13.727c-3.764-3.762-8.371-5.669-13.692-5.669c-0.99,0-1.992,0.077-3.053,0.234
		c-1.909-1.43-4.155-2.154-6.681-2.154c-3.116,0-5.809,1.112-8.002,3.305c-2.193,2.191-3.305,4.883-3.305,8.002
		c0,2.367,0.664,4.522,1.976,6.413c-0.219,1.192-0.33,2.4-0.33,3.596c0,5.322,1.907,9.929,5.669,13.693
		c3.786,3.784,8.404,5.703,13.727,5.703c1.262,0,2.441-0.112,3.536-0.307c1.923,1.473,4.188,2.227,6.747,2.227
		c3.117,0,5.81-1.112,8.002-3.304c2.193-2.193,3.305-4.886,3.305-8.003c0-2.643-0.814-4.995-2.404-7.002
		C68.737,53.46,68.813,52.481,68.813,51.371z M66.642,68.322c-1.901,1.901-4.236,2.866-6.941,2.866
		c-2.325,0-4.368-0.705-6.073-2.094c-0.01-0.008-0.021-0.009-0.031-0.017c-0.042-0.03-0.089-0.049-0.136-0.071
		c-0.043-0.02-0.083-0.042-0.128-0.053c-0.042-0.01-0.085-0.009-0.129-0.012c-0.054-0.003-0.106-0.009-0.16-0.001
		c-0.013,0.002-0.024-0.002-0.037,0c-1.088,0.218-2.295,0.328-3.589,0.328c-4.979,0-9.123-1.722-12.667-5.264
		c-3.47-3.473-5.23-7.723-5.23-12.633c0-1.204,0.122-2.423,0.363-3.623c0.042-0.207-0.006-0.422-0.131-0.592
		c-1.263-1.715-1.877-3.61-1.877-5.794c0-2.706,0.964-5.042,2.866-6.941c1.902-1.902,4.238-2.867,6.942-2.867
		c2.328,0,4.294,0.665,6.011,2.031c0.165,0.132,0.379,0.186,0.586,0.154c1.102-0.178,2.127-0.265,3.137-0.265
		c4.91,0,9.16,1.76,12.632,5.23c3.542,3.544,5.264,7.688,5.264,12.667c0,1.159-0.075,2.172-0.23,3.098
		c-0.001,0.01,0.002,0.019,0.001,0.029c-0.007,0.054,0,0.106,0.005,0.16c0.004,0.044,0.002,0.089,0.014,0.131
		c0.011,0.042,0.036,0.079,0.054,0.119c0.023,0.049,0.043,0.098,0.077,0.141c0.006,0.008,0.008,0.018,0.014,0.026
		c1.499,1.787,2.259,3.909,2.259,6.306C69.508,64.084,68.544,66.42,66.642,68.322z"/>
	<path d="M48.792,51.067c-0.965-0.032-1.765-0.227-2.383-0.558c-0.295-0.198-0.589-0.426-0.851-0.629
		c-0.888-0.773-1.319-1.664-1.319-2.725c0-1.1,0.419-1.977,1.338-2.777c0.854-0.794,1.89-1.165,3.209-1.135
		c1.228-0.03,2.23,0.306,3.103,1.028c0.318,0.264,0.791,0.219,1.056-0.1c0.264-0.319,0.219-0.792-0.1-1.056
		c-1.147-0.949-2.526-1.411-4.059-1.372c-1.685-0.047-3.092,0.477-4.211,1.52c-1.217,1.06-1.834,2.369-1.834,3.892
		c0,1.499,0.617,2.796,1.865,3.881c0.322,0.251,0.645,0.5,1.029,0.754c0.889,0.481,1.905,0.734,3.145,0.775
		c1.991-0.027,3.385,0.331,4.25,1.109c0.865,0.78,1.3,1.692,1.33,2.747c-0.03,1.076-0.464,1.977-1.291,2.722
		c-0.292,0.229-0.583,0.456-0.808,0.61c-0.716,0.373-1.531,0.569-2.465,0.601c-1.294,0-2.353-0.386-3.275-1.213
		c-0.227-0.176-0.414-0.381-0.59-0.646c-0.229-0.346-0.695-0.438-1.04-0.208c-0.345,0.229-0.438,0.695-0.208,1.04
		c0.265,0.398,0.565,0.725,0.877,0.964c1.152,1.037,2.577,1.563,4.26,1.563c0,0,0.001,0,0.002,0c1.188-0.04,2.213-0.292,3.202-0.811
		c0.324-0.216,0.649-0.466,1.011-0.752c1.17-1.052,1.784-2.339,1.826-3.868c-0.041-1.507-0.655-2.807-1.825-3.862
		C52.871,51.517,51.125,51.038,48.792,51.067z"/>
</g>
</svg>
