<?xml version="1.0" encoding="utf-8"?>
<!-- Generator: Adobe Illustrator 16.0.0, SVG Export Plug-In . SVG Version: 6.00 Build 0)  -->
<!DOCTYPE svg PUBLIC "-//W3C//DTD SVG 1.1//EN" "http://www.w3.org/Graphics/SVG/1.1/DTD/svg11.dtd">
<svg version="1.1" id="Layer_1" xmlns="http://www.w3.org/2000/svg" xmlns:xlink="http://www.w3.org/1999/xlink" x="0px" y="0px"
	 width="100px" height="100px" viewBox="0 0 100 100" enable-background="new 0 0 100 100" xml:space="preserve">
<path fill="none" stroke="#000000" stroke-width="1.4994" stroke-linecap="round" stroke-linejoin="round" stroke-miterlimit="10" d="
	M82.7,26.896c-1.304-1.814-2.777-3.529-4.423-5.175C70.464,13.907,61.038,10,50,10s-20.464,3.907-28.278,11.722
	c-1.748,1.715-3.256,3.497-4.592,5.383"/>
<path fill="none" stroke="#000000" stroke-width="1.4994" stroke-linecap="round" stroke-linejoin="round" stroke-miterlimit="10" d="
	M62.683,46.915l-3.188,3.188c-6.479,6.444-12.922,6.444-19.401,0l-4.113-4.148"/>
<line fill="none" stroke="#000000" stroke-width="1.4994" stroke-linecap="round" stroke-linejoin="round" stroke-miterlimit="10" x1="13.257" y1="66.109" x2="35.981" y2="45.955"/>
<path fill="none" stroke="#000000" stroke-width="1.4994" stroke-linecap="round" stroke-linejoin="round" stroke-miterlimit="10" d="
	M17.13,27.104C12.366,33.753,10,41.397,10,50c0,5.793,1.096,11.175,3.257,16.109"/>
<path fill="none" stroke="#000000" stroke-width="1.4994" stroke-linecap="round" stroke-linejoin="round" stroke-miterlimit="10" d="
	M13.257,66.109c1.954,4.422,4.764,8.468,8.465,12.169C29.536,86.093,38.962,90,50,90c6.068,0,11.62-1.166,16.726-3.53
	c1.373-0.651,2.708-1.371,4.045-2.193c2.639-1.646,5.142-3.634,7.506-5.999c2.33-2.331,4.319-4.799,5.965-7.403
	c0.994-1.612,1.851-3.291,2.605-5.005"/>
<line fill="none" stroke="#000000" stroke-width="1.4994" stroke-linecap="round" stroke-linejoin="round" stroke-miterlimit="10" x1="62.683" y1="46.915" x2="86.848" y2="65.87"/>
<path fill="none" stroke="#000000" stroke-width="1.4994" stroke-linecap="round" stroke-linejoin="round" stroke-miterlimit="10" d="
	M86.848,65.87C88.938,61.037,90,55.724,90,50c0-8.705-2.433-16.418-7.3-23.103"/>
<line fill="none" stroke="#000000" stroke-width="1.4994" stroke-linecap="round" stroke-linejoin="round" stroke-miterlimit="10" x1="82.7" y1="26.896" x2="62.683" y2="46.915"/>
<line fill="none" stroke="#000000" stroke-width="1.4994" stroke-linecap="round" stroke-linejoin="round" stroke-miterlimit="10" x1="35.981" y1="45.955" x2="17.13" y2="27.104"/>
</svg>
