<?xml version="1.0" encoding="utf-8"?>
<!-- Generator: Adobe Illustrator 16.0.0, SVG Export Plug-In . SVG Version: 6.00 Build 0)  -->
<!DOCTYPE svg PUBLIC "-//W3C//DTD SVG 1.1//EN" "http://www.w3.org/Graphics/SVG/1.1/DTD/svg11.dtd">
<svg version="1.1" id="Layer_1" xmlns="http://www.w3.org/2000/svg" xmlns:xlink="http://www.w3.org/1999/xlink" x="0px" y="0px"
	 width="100px" height="100px" viewBox="0 0 100 100" enable-background="new 0 0 100 100" xml:space="preserve">
<path fill="none" stroke="#000000" stroke-width="1.4994" stroke-linecap="round" stroke-linejoin="round" stroke-miterlimit="10" d="
	M59.046,29.84c-0.057-0.105-0.115-0.21-0.171-0.288c-1.135-1.527-2.497-2.302-4.087-2.302c-1.61,0-2.973,0.775-4.108,2.302
	c-1.098,1.528-1.664,3.365-1.686,5.514l-0.018,11.543"/>
<path fill="none" stroke="#000000" stroke-width="1.4994" stroke-linecap="round" stroke-linejoin="round" stroke-miterlimit="10" d="
	M76.001,17.621C68.769,11.485,60.269,8.435,50.5,8.435c-11.037,0-20.462,3.908-28.277,11.723C14.408,27.972,10.5,37.397,10.5,48.434
	c0,11.037,3.908,20.463,11.722,28.278c7.815,7.815,17.241,11.723,28.277,11.723c9.769,0,18.27-3.051,25.501-9.152
	c0.926-0.789,1.851-1.646,2.776-2.571C86.592,68.897,90.5,59.471,90.5,48.434c0-11.037-3.908-20.462-11.723-28.277
	C77.852,19.232,76.927,18.409,76.001,17.621L76.001,17.621z"/>
<line fill="none" stroke="#000000" stroke-width="1.4994" stroke-linecap="round" stroke-linejoin="round" stroke-miterlimit="10" x1="54.276" y1="46.609" x2="48.977" y2="46.609"/>
<line fill="none" stroke="#000000" stroke-width="1.4994" stroke-linecap="round" stroke-linejoin="round" stroke-miterlimit="10" x1="48.977" y1="46.609" x2="44.604" y2="46.609"/>
<line fill="none" stroke="#000000" stroke-width="1.4994" stroke-linecap="round" stroke-linejoin="round" stroke-miterlimit="10" x1="48.977" y1="46.609" x2="48.977" y2="70.574"/>
</svg>
