<?xml version="1.0" encoding="utf-8"?>
<!-- Generator: Adobe Illustrator 16.0.0, SVG Export Plug-In . SVG Version: 6.00 Build 0)  -->
<!DOCTYPE svg PUBLIC "-//W3C//DTD SVG 1.1//EN" "http://www.w3.org/Graphics/SVG/1.1/DTD/svg11.dtd">
<svg version="1.1" id="Layer_1" xmlns="http://www.w3.org/2000/svg" xmlns:xlink="http://www.w3.org/1999/xlink" x="0px" y="0px"
	 width="100px" height="100px" viewBox="0 0 100 100" enable-background="new 0 0 100 100" xml:space="preserve">
<g>
	<path d="M54.353,36.293c-3.299,0-6.152,1.181-8.482,3.511c-0.812,0.812-1.479,1.69-2.011,2.628v-4.566
		c0-0.414-0.335-0.75-0.75-0.75s-0.75,0.335-0.75,0.75v10.146v15.63c0,0.414,0.335,0.75,0.75,0.75s0.75-0.335,0.75-0.75V48.028
		c0.064-2.78,1.097-5.19,3.071-7.164c2.066-2.067,4.494-3.072,7.421-3.072c2.928,0,5.355,1.005,7.421,3.072
		c2.002,2.001,3.007,4.356,3.072,7.182v15.595c0,0.414,0.335,0.75,0.75,0.75s0.75-0.335,0.75-0.75V48.029
		c-0.073-3.202-1.254-5.969-3.51-8.225C60.505,37.475,57.652,36.293,54.353,36.293z"/>
	<path d="M33.943,29.795c-0.592,0.591-0.905,1.344-0.905,2.176c0,0.831,0.313,1.583,0.905,2.175
		c0.593,0.592,1.345,0.905,2.175,0.905c0.831,0,1.583-0.313,2.176-0.905c0.592-0.593,0.905-1.345,0.905-2.175
		c0-0.831-0.313-1.583-0.905-2.175C37.111,28.611,35.127,28.611,33.943,29.795z M37.233,33.086c-0.627,0.626-1.603,0.627-2.23,0
		c-0.313-0.313-0.466-0.678-0.466-1.115c0-0.438,0.152-0.802,0.466-1.115c0.313-0.313,0.678-0.466,1.115-0.466
		c0.438,0,0.802,0.152,1.115,0.466c0.313,0.313,0.466,0.678,0.466,1.115C37.699,32.408,37.546,32.772,37.233,33.086z"/>
	<path d="M78.808,21.192C70.883,13.268,61.191,9.25,50,9.25c-11.191,0-20.883,4.018-28.808,11.942
		C13.268,29.117,9.25,38.809,9.25,50s4.018,20.883,11.941,28.808C29.116,86.732,38.809,90.75,50,90.75
		c6.15,0,11.884-1.211,17.048-3.603c1.444-0.686,2.791-1.417,4.119-2.234c2.705-1.686,5.275-3.74,7.641-6.104
		C86.732,70.883,90.75,61.191,90.75,50S86.732,29.117,78.808,21.192z M77.747,77.747c-2.285,2.284-4.765,4.267-7.37,5.891
		c-1.279,0.787-2.578,1.492-3.966,2.151C61.382,88.118,56.014,89.25,50,89.25c-10.779,0-20.114-3.871-27.747-11.503
		S10.75,60.779,10.75,50s3.87-20.114,11.503-27.747S39.221,10.75,50,10.75c10.779,0,20.115,3.871,27.748,11.503
		S89.25,39.221,89.25,50S85.38,70.114,77.747,77.747z"/>
	<path d="M35.707,37.116c-0.414,0-0.75,0.335-0.75,0.75v25.776c0,0.414,0.335,0.75,0.75,0.75s0.75-0.335,0.75-0.75V37.866
		C36.456,37.452,36.121,37.116,35.707,37.116z"/>
</g>
</svg>
