<?xml version="1.0" encoding="utf-8"?>
<!-- Generator: Adobe Illustrator 16.0.0, SVG Export Plug-In . SVG Version: 6.00 Build 0)  -->
<!DOCTYPE svg PUBLIC "-//W3C//DTD SVG 1.1//EN" "http://www.w3.org/Graphics/SVG/1.1/DTD/svg11.dtd">
<svg version="1.1" id="Layer_1" xmlns="http://www.w3.org/2000/svg" xmlns:xlink="http://www.w3.org/1999/xlink" x="0px" y="0px"
	 width="100px" height="100px" viewBox="0 0 100 100" enable-background="new 0 0 100 100" xml:space="preserve">
<path fill="none" stroke="#000000" stroke-width="1.4994" stroke-linecap="round" stroke-linejoin="round" stroke-miterlimit="10" d="
	M65.595,63.642V48.046c-0.069-3.017-1.166-5.587-3.291-7.712c-2.193-2.194-4.833-3.292-7.952-3.292s-5.758,1.098-7.952,3.292
	c-2.125,2.125-3.222,4.695-3.291,7.677"/>
<path fill="none" stroke="#000000" stroke-width="1.4994" stroke-linecap="round" stroke-linejoin="round" stroke-miterlimit="10" d="
	M37.763,30.326c-0.445-0.446-0.994-0.686-1.646-0.686s-1.199,0.24-1.645,0.686c-0.446,0.445-0.686,0.994-0.686,1.646
	c0,0.65,0.24,1.199,0.686,1.645c0.446,0.445,0.994,0.686,1.645,0.686s1.2-0.24,1.646-0.686c0.445-0.446,0.686-0.995,0.686-1.645
	C38.449,31.319,38.208,30.771,37.763,30.326L37.763,30.326z"/>
<line fill="none" stroke="#000000" stroke-width="1.4994" stroke-linecap="round" stroke-linejoin="round" stroke-miterlimit="10" x1="43.11" y1="63.642" x2="43.11" y2="48.011"/>
<line fill="none" stroke="#000000" stroke-width="1.4994" stroke-linecap="round" stroke-linejoin="round" stroke-miterlimit="10" x1="43.11" y1="48.011" x2="43.11" y2="37.866"/>
<path fill="none" stroke="#000000" stroke-width="1.4994" stroke-linecap="round" stroke-linejoin="round" stroke-miterlimit="10" d="
	M78.277,21.723C70.462,13.908,61.036,10,50,10c-11.037,0-20.462,3.908-28.277,11.723C13.908,29.538,10,38.962,10,50
	c0,11.037,3.908,20.462,11.722,28.277C29.537,86.092,38.962,90,50,90c6.067,0,11.62-1.166,16.727-3.531
	c1.371-0.651,2.708-1.371,4.044-2.193c2.64-1.646,5.142-3.634,7.507-5.999C86.092,70.462,90,61.037,90,50
	C90,38.962,86.092,29.538,78.277,21.723L78.277,21.723z"/>
<line fill="none" stroke="#000000" stroke-width="1.4994" stroke-linecap="round" stroke-linejoin="round" stroke-miterlimit="10" x1="35.707" y1="63.642" x2="35.707" y2="37.866"/>
</svg>
