<?xml version="1.0" encoding="utf-8"?>
<!-- Generator: Adobe Illustrator 16.0.0, SVG Export Plug-In . SVG Version: 6.00 Build 0)  -->
<!DOCTYPE svg PUBLIC "-//W3C//DTD SVG 1.1//EN" "http://www.w3.org/Graphics/SVG/1.1/DTD/svg11.dtd">
<svg version="1.1" id="Layer_1" xmlns="http://www.w3.org/2000/svg" xmlns:xlink="http://www.w3.org/1999/xlink" x="0px" y="0px"
	 width="100px" height="100px" viewBox="0 0 100 100" enable-background="new 0 0 100 100" xml:space="preserve">
<path fill="none" stroke="#000000" stroke-width="1.4994" stroke-linecap="round" stroke-linejoin="round" stroke-miterlimit="10" d="
	M10.5,48.435c0,11.037,3.908,20.463,11.723,28.277c7.815,7.816,17.241,11.723,28.277,11.723c6.066,0,11.619-1.165,16.727-3.53
	c1.371-0.651,2.708-1.371,4.045-2.194c1.233-0.754,2.434-1.576,3.599-2.502c0.754-0.583,1.474-1.199,2.194-1.851
	c0.582-0.513,1.131-1.063,1.713-1.646C86.592,68.898,90.5,59.473,90.5,48.435s-3.908-20.461-11.723-28.276
	C70.963,12.343,61.537,8.435,50.5,8.435c-11.036,0-20.462,3.908-28.277,11.724C14.408,27.973,10.5,37.396,10.5,48.435L10.5,48.435z"
	/>
<path fill="none" stroke="#000000" stroke-width="1.4994" stroke-miterlimit="10" d="M72.633,61.917l-7.158-7.174
	c-1.425-1.422-3.786-1.379-5.261,0.098l-3.606,3.613c-0.229-0.125-0.463-0.258-0.711-0.396c-2.278-1.262-5.393-2.996-8.673-6.286
	c-3.288-3.293-5.02-6.422-6.284-8.707c-0.135-0.242-0.262-0.476-0.389-0.697l2.42-2.422l1.189-1.194
	c1.478-1.481,1.519-3.847,0.097-5.273L37.1,26.304c-1.422-1.425-3.784-1.382-5.262,0.1l-2.017,2.032l0.056,0.055
	c-0.676,0.865-1.242,1.862-1.661,2.939c-0.389,1.023-0.63,2.002-0.741,2.979c-0.944,7.853,2.635,15.029,12.35,24.768
	C53.255,72.637,64.08,71.621,64.546,71.57c1.017-0.121,1.991-0.365,2.981-0.75c1.063-0.418,2.059-0.982,2.923-1.656l0.044,0.035
	l2.043-2.005C74.012,65.712,74.053,63.347,72.633,61.917z"/>
</svg>
