<?xml version="1.0" encoding="utf-8"?>
<!-- Generator: Adobe Illustrator 16.0.0, SVG Export Plug-In . SVG Version: 6.00 Build 0)  -->
<!DOCTYPE svg PUBLIC "-//W3C//DTD SVG 1.1//EN" "http://www.w3.org/Graphics/SVG/1.1/DTD/svg11.dtd">
<svg version="1.1" id="Layer_1" xmlns="http://www.w3.org/2000/svg" xmlns:xlink="http://www.w3.org/1999/xlink" x="0px" y="0px"
	 width="100px" height="100px" viewBox="0 0 100 100" enable-background="new 0 0 100 100" xml:space="preserve">
<g>
	
		<path fill="none" stroke="#000000" stroke-width="1.4994" stroke-linecap="round" stroke-linejoin="round" stroke-miterlimit="10" d="
		M78.277,21.723C70.462,13.908,61.036,10,50,10c-11.037,0-20.462,3.908-28.277,11.723C13.908,29.538,10,38.962,10,50
		c0,11.037,3.908,20.462,11.722,28.277C29.537,86.092,38.962,90,50,90c6.067,0,11.62-1.166,16.727-3.531
		c1.371-0.651,2.708-1.371,4.044-2.193c2.64-1.646,5.142-3.634,7.507-5.999C86.092,70.462,90,61.037,90,50
		C90,38.962,86.092,29.538,78.277,21.723L78.277,21.723z"/>
	<g>
		<g>
			<g>
				<g>
					<path stroke="#000000" stroke-width="0.75" stroke-miterlimit="10" d="M25.589,50.47c0-1.576,0.276-3.141,0.829-4.692
						c0.552-1.552,1.349-2.949,2.392-4.193c1.043-1.243,2.331-2.253,3.864-3.029c1.534-0.776,3.28-1.164,5.244-1.164
						c2.331,0,4.306,0.535,5.925,1.607c1.619,1.071,2.821,2.445,3.606,4.119L46.75,43.34c-0.516-0.96-1.111-1.773-1.785-2.438
						c-0.675-0.665-1.411-1.201-2.208-1.607c-0.797-0.406-1.62-0.702-2.466-0.887c-0.846-0.184-1.687-0.277-2.521-0.277
						c-1.817,0-3.435,0.364-4.857,1.09c-1.423,0.727-2.626,1.681-3.606,2.863c-0.981,1.182-1.725,2.519-2.227,4.008
						c-0.503,1.49-0.754,2.986-0.754,4.489c0,1.675,0.3,3.276,0.902,4.802c0.601,1.527,1.421,2.875,2.465,4.045
						c1.043,1.17,2.263,2.1,3.662,2.79c1.398,0.69,2.906,1.034,4.525,1.034c0.858,0,1.742-0.111,2.65-0.333
						c0.907-0.222,1.785-0.554,2.631-0.997c0.846-0.444,1.631-1.016,2.355-1.718c0.723-0.702,1.344-1.533,1.859-2.494l0.698,0.185
						c-0.441,0.985-1.042,1.859-1.803,2.623c-0.76,0.763-1.606,1.404-2.539,1.921c-0.933,0.517-1.92,0.905-2.962,1.164
						c-1.043,0.258-2.055,0.388-3.036,0.388c-1.767,0-3.397-0.394-4.895-1.182c-1.497-0.788-2.778-1.816-3.845-3.085
						c-1.067-1.269-1.901-2.709-2.502-4.322C25.89,53.789,25.589,52.145,25.589,50.47z"/>
				</g>
			</g>
			<g>
				<path stroke="#000000" stroke-width="0.75" stroke-miterlimit="10" d="M53.12,37.517l10.504,25.662l10.47-25.662h0.772
					L64.011,64.115h-0.773L52.381,37.517H53.12z"/>
			</g>
		</g>
	</g>
</g>
</svg>
