<?xml version="1.0" encoding="utf-8"?>
<!-- Generator: Adobe Illustrator 16.0.0, SVG Export Plug-In . SVG Version: 6.00 Build 0)  -->
<!DOCTYPE svg PUBLIC "-//W3C//DTD SVG 1.1//EN" "http://www.w3.org/Graphics/SVG/1.1/DTD/svg11.dtd">
<svg version="1.1" id="Layer_1" xmlns="http://www.w3.org/2000/svg" xmlns:xlink="http://www.w3.org/1999/xlink" x="0px" y="0px"
	 width="100px" height="100px" viewBox="0 0 100 100" enable-background="new 0 0 100 100" xml:space="preserve">
<path fill="none" stroke="#000000" stroke-width="1.4994" stroke-linecap="round" stroke-linejoin="round" stroke-miterlimit="10" d="
	M10.5,48.435c0,11.037,3.908,20.463,11.723,28.277c7.815,7.816,17.241,11.723,28.277,11.723c6.066,0,11.619-1.165,16.727-3.53
	c1.371-0.651,2.708-1.371,4.045-2.194c1.233-0.754,2.434-1.576,3.599-2.502c0.754-0.583,1.474-1.199,2.194-1.851
	c0.582-0.513,1.131-1.063,1.713-1.646C86.592,68.898,90.5,59.473,90.5,48.435s-3.908-20.461-11.723-28.276
	C70.963,12.343,61.537,8.435,50.5,8.435c-11.036,0-20.462,3.908-28.277,11.724C14.408,27.973,10.5,37.396,10.5,48.435L10.5,48.435z"
	/>
<path fill="none" stroke="#000000" stroke-width="1.4994" stroke-linecap="round" stroke-linejoin="round" stroke-miterlimit="10" d="
	M68.323,53.026c0.172-1.027,0.24-2.089,0.24-3.221c0-5.141-1.817-9.528-5.483-13.196c-3.635-3.632-8.021-5.45-13.163-5.45
	c-1.131,0-2.194,0.103-3.256,0.274c-1.85-1.473-4.01-2.194-6.478-2.194c-2.914,0-5.416,1.03-7.472,3.086
	c-2.057,2.055-3.085,4.558-3.085,7.472c0,2.366,0.686,4.423,2.023,6.238c-0.241,1.2-0.377,2.469-0.377,3.77
	c0,5.142,1.817,9.528,5.449,13.163c3.668,3.666,8.055,5.483,13.197,5.483c1.268,0,2.537-0.103,3.736-0.342"/>
<path fill="none" stroke="#000000" stroke-width="1.4994" stroke-linecap="round" stroke-linejoin="round" stroke-miterlimit="10" d="
	M52.865,42.128c-0.994-0.823-2.194-1.235-3.599-1.2c-1.474-0.035-2.708,0.412-3.701,1.336c-1.063,0.926-1.577,2.022-1.577,3.326
	c0,1.267,0.514,2.365,1.577,3.29c0.308,0.24,0.616,0.479,0.925,0.686c0.822,0.445,1.748,0.65,2.776,0.685
	c2.16-0.035,3.736,0.377,4.764,1.302c1.028,0.927,1.542,2.023,1.577,3.325c-0.035,1.268-0.549,2.366-1.577,3.291
	c-0.308,0.242-0.616,0.48-0.925,0.686c-0.857,0.446-1.783,0.651-2.812,0.686c-1.473,0-2.707-0.446-3.735-1.371
	c-0.309-0.24-0.548-0.513-0.754-0.823"/>
<path fill="none" stroke="#000000" stroke-width="1.4994" stroke-linecap="round" stroke-linejoin="round" stroke-miterlimit="10" d="
	M53.653,68.109c1.851,1.508,4.045,2.262,6.547,2.262c2.913,0,5.416-1.029,7.472-3.085c2.057-2.056,3.086-4.559,3.086-7.473
	c0-2.604-0.823-4.867-2.435-6.788"/>
</svg>
