<?xml version="1.0" encoding="utf-8"?>
<!-- Generator: Adobe Illustrator 16.0.0, SVG Export Plug-In . SVG Version: 6.00 Build 0)  -->
<!DOCTYPE svg PUBLIC "-//W3C//DTD SVG 1.1//EN" "http://www.w3.org/Graphics/SVG/1.1/DTD/svg11.dtd">
<svg version="1.1" id="Layer_1" xmlns="http://www.w3.org/2000/svg" xmlns:xlink="http://www.w3.org/1999/xlink" x="0px" y="0px"
	 width="100px" height="100px" viewBox="0 0 100 100" enable-background="new 0 0 100 100" xml:space="preserve">
<g>
	<path d="M58.976,30.67c-1.285-1.729-2.862-2.604-4.688-2.604c-1.84,0-3.425,0.876-4.717,2.614c-1.189,1.655-1.803,3.655-1.826,5.95
		l-0.017,10.795h-3.624c-0.414,0-0.75,0.335-0.75,0.75s0.335,0.75,0.75,0.75h3.623V72.14c0,0.414,0.335,0.75,0.75,0.75
		s0.75-0.335,0.75-0.75V48.924h4.55c0.414,0,0.75-0.335,0.75-0.75s-0.335-0.75-0.75-0.75h-4.549l0.017-10.787
		c0.02-1.974,0.54-3.685,1.538-5.074c1-1.346,2.147-2,3.506-2c1.345,0,2.485,0.654,3.48,1.993c0.04,0.055,0.078,0.129,0.118,0.203
		c0.197,0.365,0.652,0.502,1.015,0.306c0.365-0.196,0.502-0.65,0.306-1.015C59.133,30.914,59.055,30.779,58.976,30.67z"/>
	<path d="M78.808,21.192c-0.82-0.82-1.69-1.615-2.822-2.578C68.662,12.401,59.918,9.25,50,9.25
		c-11.191,0-20.883,4.018-28.807,11.942C13.268,29.117,9.25,38.809,9.25,50c0,11.191,4.018,20.883,11.941,28.808
		C29.116,86.732,38.809,90.75,50,90.75c9.905,0,18.647-3.138,25.988-9.331c0.936-0.797,1.884-1.676,2.82-2.611
		C86.732,70.883,90.75,61.191,90.75,50C90.75,38.809,86.732,29.117,78.808,21.192z M77.747,77.747
		c-0.908,0.908-1.827,1.759-2.729,2.528C67.958,86.23,59.541,89.25,50,89.25c-10.779,0-20.114-3.871-27.747-11.503
		S10.75,60.778,10.75,50c0-10.778,3.871-20.114,11.503-27.747C29.885,14.62,39.221,10.75,50,10.75
		c9.554,0,17.971,3.031,25.016,9.007c1.099,0.936,1.941,1.705,2.732,2.496C85.38,29.886,89.25,39.221,89.25,50
		C89.25,60.779,85.38,70.114,77.747,77.747z"/>
</g>
</svg>
