<?xml version="1.0" encoding="utf-8"?>
<!-- Generator: Adobe Illustrator 16.0.0, SVG Export Plug-In . SVG Version: 6.00 Build 0)  -->
<!DOCTYPE svg PUBLIC "-//W3C//DTD SVG 1.1//EN" "http://www.w3.org/Graphics/SVG/1.1/DTD/svg11.dtd">
<svg version="1.1" id="Layer_1" xmlns="http://www.w3.org/2000/svg" xmlns:xlink="http://www.w3.org/1999/xlink" x="0px" y="0px"
	 width="100px" height="100px" viewBox="0 0 100 100" enable-background="new 0 0 100 100" xml:space="preserve">
<g>
	<g>
		<g>
			<path d="M78.809,21.192c-0.82-0.82-1.69-1.615-2.822-2.578C68.662,12.401,59.918,9.25,50,9.25
				c-11.191,0-20.883,4.018-28.807,11.942C13.268,29.117,9.25,38.809,9.25,50c0,11.191,4.018,20.883,11.941,28.809
				C29.116,86.732,38.809,90.75,50,90.75c9.904,0,18.646-3.139,25.988-9.331c0.936-0.797,1.884-1.676,2.82-2.61
				C86.732,70.883,90.75,61.191,90.75,50C90.75,38.809,86.732,29.117,78.809,21.192z M77.747,77.747
				c-0.908,0.907-1.827,1.759-2.729,2.528C67.958,86.23,59.541,89.25,50,89.25c-10.779,0-20.114-3.871-27.747-11.503
				S10.75,60.777,10.75,50c0-10.778,3.871-20.114,11.503-27.747S39.221,10.75,50,10.75c9.555,0,17.971,3.031,25.016,9.007
				c1.1,0.936,1.941,1.705,2.732,2.496C85.38,29.886,89.25,39.221,89.25,50C89.25,60.779,85.38,70.114,77.747,77.747z"/>
		</g>
	</g>
</g>
<g>
	<g>
		<g>
			<path d="M69.756,44.285c-0.451-0.869-0.562-1.968-0.678-3.132c-0.045-0.449-0.09-0.896-0.154-1.33
				c-0.184-1.244-0.331-2.493-0.517-4.059c-0.091-0.768-0.19-1.612-0.308-2.568c-0.028-0.231-0.162-0.436-0.362-0.554
				c-0.2-0.119-0.444-0.139-0.659-0.052l-9.004,3.586H41.948L32.8,32.239c-0.232-0.101-0.498-0.077-0.709,0.063
				c-0.21,0.139-0.337,0.374-0.337,0.626v9.155c0,0.059,0.007,0.116,0.02,0.171c-3.548,5.314-4.364,11.143-2.237,16.022
				c2.065,4.734,6.715,7.979,12.759,8.902c2.813,0.43,5.677,0.645,8.517,0.645c2.862,0,5.699-0.219,8.429-0.655
				c4.807-0.769,8.597-3.462,10.674-7.583C72.242,54.965,72.181,48.959,69.756,44.285z M68.575,58.91
				c-1.313,2.603-4.038,5.892-9.571,6.777c-5.286,0.845-10.985,0.848-16.482,0.009c-5.524-0.844-9.756-3.767-11.611-8.02
				c-1.938-4.446-1.132-9.82,2.213-14.743c0.132-0.194,0.161-0.427,0.099-0.636c0.021-0.068,0.031-0.141,0.031-0.215v-8.016
				l8.243,3.548c0.094,0.04,0.194,0.061,0.296,0.061h16.425c0.095,0,0.189-0.018,0.277-0.053l8.233-3.279
				c0.068,0.57,0.131,1.099,0.189,1.596c0.187,1.583,0.336,2.846,0.521,4.103c0.062,0.412,0.104,0.835,0.146,1.26
				c0.126,1.254,0.256,2.55,0.839,3.673C70.634,49.237,70.693,54.706,68.575,58.91z"/>
		</g>
	</g>
</g>
</svg>
