<?xml version="1.0" encoding="utf-8"?>
<!-- Generator: Adobe Illustrator 16.0.0, SVG Export Plug-In . SVG Version: 6.00 Build 0)  -->
<!DOCTYPE svg PUBLIC "-//W3C//DTD SVG 1.1//EN" "http://www.w3.org/Graphics/SVG/1.1/DTD/svg11.dtd">
<svg version="1.1" id="Layer_1" xmlns="http://www.w3.org/2000/svg" xmlns:xlink="http://www.w3.org/1999/xlink" x="0px" y="0px"
	 width="100px" height="100px" viewBox="0 0 100 100" enable-background="new 0 0 100 100" xml:space="preserve">
<g>
	<path d="M78.809,21.192c-0.82-0.82-1.69-1.615-2.822-2.578C68.662,12.401,59.918,9.25,50,9.25
		c-11.191,0-20.883,4.018-28.807,11.942C13.268,29.117,9.25,38.809,9.25,50c0,11.191,4.018,20.883,11.941,28.809
		C29.116,86.732,38.809,90.75,50,90.75c9.904,0,18.646-3.139,25.988-9.331c0.936-0.797,1.884-1.676,2.82-2.61
		C86.732,70.883,90.75,61.191,90.75,50C90.75,38.809,86.732,29.117,78.809,21.192z M77.747,77.747
		c-0.908,0.907-1.827,1.759-2.729,2.528C67.958,86.23,59.541,89.25,50,89.25c-10.779,0-20.114-3.871-27.747-11.503
		S10.75,60.777,10.75,50c0-10.778,3.871-20.114,11.503-27.747S39.221,10.75,50,10.75c9.555,0,17.971,3.031,25.016,9.007
		c1.1,0.936,1.941,1.705,2.732,2.496C85.38,29.886,89.25,39.221,89.25,50C89.25,60.779,85.38,70.114,77.747,77.747z"/>
	<g>
		<path fill="none" stroke="#000000" stroke-width="1.5" stroke-miterlimit="10" d="M71.943,35.429
			c0.486-1.265,1.734-5.475-0.428-11.08l-0.021-0.057l-0.059-0.018c-0.041-0.013-3.475-1.127-11.266,4.276
			c-3.148-0.891-6.668-1.371-10.184-1.39c-3.564,0.019-6.99,0.486-10.183,1.39c-7.788-5.402-11.223-4.289-11.266-4.276l-0.058,0.018
			l-0.022,0.057c-2.163,5.604-0.915,9.813-0.428,11.08c-2.764,3.121-4.165,6.898-4.165,11.232c0,16.313,9.774,19.691,18.402,20.742
			c-1.247,1.234-2.101,3.141-2.418,5.406c-0.889,0.406-2.608,1.051-4.543,1.051c-3.001,0-5.388-1.516-7.094-4.5
			c-0.021-0.041-2.226-4.029-6.368-4.396c-0.173,0-1.695,0.021-1.923,0.742c-0.162,0.512,0.36,1.184,1.613,2.061
			c0.026,0.014,2.655,1.336,4.464,6.035c0.018,0.063,1.9,6.186,9.744,6.186c1.251,0,2.592-0.156,3.988-0.461
			c0.01,1.873,0.025,3.488,0.037,4.729c0.009,1.02,0.017,1.783,0.017,2.229c0,0.64-0.269,1.345-0.94,1.704
			c0.107,0.028,0.214,0.057,0.318,0.094c0.591-0.416,0.872-1.105,0.872-1.798c0-0.445-0.007-1.211-0.017-2.232
			c-0.012-1.271-0.027-2.941-0.038-4.881l-0.001-0.156l-0.151,0.035c-1.432,0.324-2.806,0.488-4.084,0.488
			c-7.65,0-9.486-5.945-9.507-6.016c-1.852-4.811-4.481-6.125-4.575-6.17c-1.468-1.031-1.571-1.553-1.501-1.771
			c0.147-0.465,1.266-0.566,1.691-0.566c3.977,0.354,6.12,4.227,6.143,4.268c1.755,3.072,4.215,4.629,7.313,4.629
			c2.029,0,3.822-0.691,4.71-1.104l0.062-0.027l0.009-0.068c0.318-2.355,1.221-4.311,2.543-5.508l0.204-0.186l-0.273-0.031
			c-8.588-1.004-18.446-4.242-18.446-20.525c0-4.297,1.397-8.039,4.152-11.123l0.051-0.058l-0.028-0.072
			c-0.454-1.146-1.763-5.31,0.377-10.909c0.109-0.024,0.378-0.071,0.816-0.071c1.476,0,4.768,0.567,10.225,4.362l0.048,0.034
			l0.057-0.016c3.187-0.908,6.61-1.377,10.171-1.396c3.514,0.019,7.031,0.501,10.172,1.396l0.057,0.016l0.049-0.034
			c5.457-3.795,8.748-4.362,10.225-4.362c0.439,0,0.707,0.047,0.816,0.071c2.141,5.6,0.832,9.764,0.379,10.909l-0.029,0.071
			l0.051,0.058c2.756,3.102,4.152,6.845,4.152,11.123c0,16.285-9.887,19.504-18.5,20.488l-0.277,0.031l0.209,0.186
			c0.818,0.727,2.723,2.924,2.723,7.639c0,3.736-0.023,6.992-0.039,9.148c-0.008,1.064-0.014,1.861-0.014,2.313
			c0,0.709,0.293,1.411,0.902,1.825c0.099-0.043,0.203-0.062,0.305-0.094c-0.686-0.357-0.957-1.079-0.957-1.731
			c0-0.451,0.006-1.246,0.014-2.311c0.016-2.156,0.039-5.412,0.039-9.15c0-3.262-0.945-6.025-2.605-7.639
			c8.652-1.033,18.451-4.391,18.451-20.705C76.107,42.346,74.707,38.567,71.943,35.429z"/>
	</g>
</g>
</svg>
