<?xml version="1.0" encoding="iso-8859-1"?>
<!-- Generator: Adobe Illustrator 16.0.0, SVG Export Plug-In . SVG Version: 6.00 Build 0)  -->
<!DOCTYPE svg PUBLIC "-//W3C//DTD SVG 1.1//EN" "http://www.w3.org/Graphics/SVG/1.1/DTD/svg11.dtd">
<svg version="1.1" id="Capa_1" xmlns="http://www.w3.org/2000/svg" xmlns:xlink="http://www.w3.org/1999/xlink" x="0px" y="0px"
	 width="477.909px" height="477.909px" viewBox="0 0 477.909 477.909" style="enable-background:new 0 0 477.909 477.909;"
	 xml:space="preserve">
<g>
	<path d="M449.234,28.674H28.674C12.841,28.674,0,41.516,0,57.349V420.56c0,15.831,12.841,28.675,28.674,28.675h420.56
		c15.84,0,28.675-12.844,28.675-28.675V57.349C477.909,41.511,465.074,28.674,449.234,28.674z M377.548,47.791
		c10.538,0,19.116,8.573,19.116,19.116s-8.578,19.117-19.116,19.117s-19.116-8.574-19.116-19.117S367.01,47.791,377.548,47.791z
		 M324.978,47.791c10.539,0,19.117,8.573,19.117,19.116s-8.578,19.117-19.117,19.117c-10.538,0-19.116-8.574-19.116-19.117
		S314.439,47.791,324.978,47.791z M449.234,420.56H28.674V105.14h420.56V420.56z M430.118,86.023
		c-10.539,0-19.117-8.574-19.117-19.117s8.578-19.116,19.117-19.116c10.538,0,19.116,8.573,19.116,19.116
		S440.656,86.023,430.118,86.023z"/>
	<g id="_x23_1e1e1cff_1_">
		<path d="M240.984,148.366c2.17-0.771,4.522,0.441,5.778,2.233c3.183,4.282,6.305,8.616,9.441,12.939
			c2.646,3.652,7.687,5.367,11.999,4.016c5.395-1.745,10.767-3.58,16.194-5.211c2.954-0.854,6.109,1.458,6.249,4.509
			c0.112,5.582,0.141,11.173,0.099,16.759c-0.099,4.431,2.889,8.7,7.015,10.261c5.502,1.806,11.056,3.489,16.498,5.458
			c2.889,1.018,4.074,4.784,2.394,7.318c-3.188,4.707-6.664,9.218-9.973,13.845c-2.432,3.44-2.516,8.347-0.313,11.917
			c3.352,4.732,6.875,9.343,10.175,14.104c1.755,2.492,0.803,6.301-2.077,7.477c-5.419,1.96-10.963,3.585-16.424,5.461
			c-3.873,1.307-6.795,5.013-7.233,9.054c-0.094,5.937-0.047,11.868-0.131,17.805c0.023,3.142-3.178,5.68-6.235,4.808
			c-5.441-1.555-10.771-3.478-16.171-5.144c-4.21-1.404-9.232,0.215-11.859,3.78c-3.389,4.546-6.646,9.199-10.071,13.712
			c-1.867,2.469-5.89,2.507-7.762,0.028c-3.444-4.522-6.704-9.176-10.102-13.73c-2.695-3.641-7.843-5.199-12.116-3.691
			c-5.176,1.651-10.323,3.397-15.518,4.975c-3.148,1.13-6.663-1.4-6.667-4.714c-0.065-5.46-0.038-10.926-0.028-16.391
			c0.096-4.555-2.968-8.961-7.273-10.449c-5.362-1.811-10.781-3.486-16.134-5.325c-2.945-0.943-4.23-4.788-2.49-7.347
			c3.139-4.728,6.639-9.222,9.932-13.842c2.6-3.584,2.59-8.823,0.042-12.426c-3.312-4.634-6.718-9.204-9.979-13.877
			c-1.706-2.558-0.474-6.319,2.432-7.342c5.334-1.934,10.771-3.579,16.179-5.322c3.827-1.321,6.699-4.98,7.215-8.982
			c0.21-6.074-0.072-12.163,0.159-18.232c0.151-3.048,3.374-5.246,6.279-4.392c5.437,1.61,10.8,3.475,16.221,5.171
			c4.401,1.396,9.558-0.497,12.134-4.301c2.847-3.995,5.761-7.938,8.634-11.92C238.376,150.081,239.449,148.826,240.984,148.366z"/>
		<path d="M306.081,287.515c17.548,18.155,34.887,36.516,52.351,54.769c-14.926,0.074-29.847-0.023-44.767,0.047
			c-0.065,14.92,0.019,29.846-0.037,44.767c-20.354-21.814-40.734-43.609-61.064-65.442c4.061-3.201,6.912-7.542,9.819-11.742
			c3.449,0.784,6.702,2.269,10.155,3.034c6.721,1.53,13.987,0.494,19.947-2.987C300.476,305.395,305.437,296.593,306.081,287.515z"
			/>
		<path d="M119.477,342.283c15.527-16.232,30.849-32.665,46.542-48.72c2.982,11.411,13.94,20.129,25.795,20.06
			c5.843,0.284,11.233-2.189,16.731-3.729c3.89,5.512,7.866,11.29,13.992,14.552c-19.418,20.891-38.849,41.762-58.257,62.651
			c-0.059-14.921,0.037-29.842-0.042-44.762C149.313,342.25,134.397,342.357,119.477,342.283z"/>
	</g>
</g>
<g>
</g>
<g>
</g>
<g>
</g>
<g>
</g>
<g>
</g>
<g>
</g>
<g>
</g>
<g>
</g>
<g>
</g>
<g>
</g>
<g>
</g>
<g>
</g>
<g>
</g>
<g>
</g>
<g>
</g>
</svg>
