<?xml version="1.0" encoding="utf-8"?>
<!-- Generator: Adobe Illustrator 16.0.0, SVG Export Plug-In . SVG Version: 6.00 Build 0)  -->
<!DOCTYPE svg PUBLIC "-//W3C//DTD SVG 1.1//EN" "http://www.w3.org/Graphics/SVG/1.1/DTD/svg11.dtd">
<svg version="1.1" id="Capa_1" xmlns="http://www.w3.org/2000/svg" xmlns:xlink="http://www.w3.org/1999/xlink" x="0px" y="0px"
	 width="200px" height="200px" viewBox="197.641 320.945 200 200" enable-background="new 197.641 320.945 200 200"
	 xml:space="preserve">
<g>
	<path fill="#FFFFFF" d="M355.565,439.242c-1.584,1.254-3.098,2.592-4.72,3.812C346.383,446.732,349.566,444.503,355.565,439.242z"
		/>
	<path fill="#FFFFFF" d="M397.575,458.683c-0.336-5.17-1.942-10.124-4.072-14.771c-4.143-8.897-10.149-16.834-16.913-24.101
		c5.952-6.599,11.367-13.657,15.143-21.579c2.13-4.536,3.768-9.351,4.149-14.416c0.414-5.01-0.647-10.458-3.697-14.897
		c-3.144-4.641-8.059-7.922-13.371-9.964c-5.337-2.063-11-3.01-16.617-3.414c-8.48-0.543-16.897,0.077-25.128,1.415
		c-9.503-21.983-23.794-36.009-39.756-36.009c-16.313,0-30.862,14.681-40.364,37.521c-8.73-1.227-17.639-1.707-26.571-0.836
		c-5.594,0.572-11.226,1.708-16.461,3.93c-5.227,2.188-10.056,5.686-12.942,10.333c-2.941,4.62-3.753,10.034-3.144,15.037
		c0.593,5.052,2.695,9.741,5.061,14.193c2.269,4.271,6.47,9.601,9.06,13.13c0.827,0.899,5.725,7.173,6.576,8.052
		c-6.483,7.462-12.186,15.594-15.962,24.609c-1.951,4.717-3.339,9.713-3.472,14.897c-0.172,5.121,1.186,10.611,4.47,14.918
		c3.37,4.508,8.363,7.518,13.66,9.309c5.297,1.797,10.906,2.501,16.391,2.661c8.34,0.224,16.554-0.808,24.582-2.425
		c9.502,21.188,23.498,34.671,39.116,34.671c16.063,0,30.425-14.172,39.935-36.378c8.784,1.603,17.771,2.599,26.875,2.069
		c5.492-0.327,11.039-1.205,16.281-3.17c5.228-1.958,10.096-5.122,13.278-9.734C396.779,469.322,397.942,463.797,397.575,458.683z
		 M361.877,360.717c5.156,0.132,10.32,0.794,15.04,2.383c4.681,1.547,8.94,4.202,11.64,7.77c2.84,3.721,3.987,8.208,3.877,12.813
		c-0.085,4.612-1.364,9.246-3.175,13.684c-3.206,7.671-8.004,14.82-13.535,21.488c-0.022-0.028-0.046-0.056-0.07-0.083
		c-8.472-8.821-18.106-16.562-28.357-23.585c-1.622-11.762-4.321-22.666-7.895-32.302
		C346.835,361.441,354.388,360.529,361.877,360.717z M342.732,392.134c-5.836-3.784-11.796-7.414-17.975-10.724
		c-5.96-3.108-12.124-5.937-18.38-8.598c7.989-3.128,16.125-5.922,24.488-8.055c1.529-0.376,3.09-0.697,4.635-1.038
		C338.628,372.241,341.125,381.78,342.732,392.134z M297.313,324.694c14.277,0,27.07,12.828,35.801,33.013
		c-1.357,0.265-2.73,0.488-4.08,0.78c-11.227,2.474-22.063,6.034-32.509,10.319c-10.609-3.951-21.578-7.163-32.89-9.281
		c-0.897-0.167-1.818-0.279-2.723-0.432C269.641,338.093,282.716,324.694,297.313,324.694z M258.61,365.169
		c1.147,0.223,2.301,0.412,3.448,0.655c8.449,1.867,16.695,4.403,24.801,7.288c-6.155,2.864-12.209,5.881-18.045,9.184
		c-5.867,3.4-11.522,7.093-17.046,10.925C253.282,383.048,255.623,373.621,258.61,365.169z M216.199,417.486
		c-2.808-3.75-2.524-3.383-9.172-13.498c-2.68-4.077-5.491-12.697-5.771-17.296c-0.289-4.585,0.702-9.169,3.339-12.89
		c2.622-3.735,6.725-6.459,11.367-8.173c4.642-1.735,9.775-2.557,14.94-2.864c7.895-0.453,15.868,0.307,23.747,1.645
		c-3.433,9.623-5.968,20.479-7.489,32.121c-10.095,7.407-19.535,15.524-27.742,24.708c-0.023,0.028-0.047,0.056-0.07,0.083
		C217.967,419.659,216.885,418.302,216.199,417.486z M247.134,445.015c-7.962-5.654-11.173-8.74-22.858-18.899
		c0.242-0.258,0.468-0.529,0.71-0.787c6.397-6.745,13.597-12.904,21.142-18.673c-0.352,4.682-0.593,9.427-0.593,14.291
		C245.535,428.993,246.198,437.518,247.134,445.015z M233.771,486.358c-5.281-0.377-10.532-1.29-15.267-3.136
		c-4.696-1.798-8.886-4.724-11.343-8.417c-5.274-7.783-3.261-17.628,0.749-26.003c3.752-7.866,9.579-15.331,15.75-22.034
		c7.819,6.545,8.025,6.72,15.731,13.308c0.65,0.556,7.031,5.097,7.717,5.563c1.966,14.479,5.675,28.253,10.512,39.401
		C249.701,486.31,241.681,486.881,233.771,486.358z M297.305,517.197c-13.972,0-26.517-12.326-35.23-31.794
		c1.287-0.285,2.59-0.551,3.862-0.863c11.273-2.871,22.148-6.752,32.664-11.302c10.688,4.215,21.703,7.755,33.078,10.263
		c0.53,0.111,1.068,0.195,1.607,0.307C324.547,504.216,311.675,517.197,297.305,517.197z M333.745,482.77
		c-0.602-0.104-1.21-0.174-1.811-0.285c-11.32-2.119-22.319-5.394-32.984-9.414c1.545-0.668,16.123-7.628,25.624-12.166
		c-0.018-0.002-0.037-0.002-0.055-0.004c-6.488,3.024-23.971,11.216-25.928,12.03c-9.128-3.463-18.021-7.44-26.58-11.907
		c8.449,4.473,17.225,8.493,26.22,12.061c-10.5,4.355-21.36,7.979-32.594,10.444c-1.342,0.286-2.699,0.51-4.056,0.767
		c-4.393-10.117-7.77-22.045-9.768-35.222c11.226,5.83,17.988,10.229-0.13-0.978c-1.287-8.71-1.953-17.605-1.953-27.15
		c0-6.006,0.312-11.859,0.835-17.566c7.255-5.302,14.854-10.277,22.741-14.75c7.544-4.327,15.384-8.222,23.396-11.789
		c8.129,3.31,16.109,6.96,23.817,11.044c8.113,4.236,15.953,8.995,23.459,14.103c0.358,3.623,0.405,26.784,0.553,30.539
		C343.402,451.52,339.542,468.827,333.745,482.77z M390.063,471.914c-2.325,3.776-6.397,6.835-11.031,8.779
		c-4.648,2-9.853,3.072-15.118,3.616c-8.668,0.851-17.499,0.349-26.197-0.913c5.921-14.256,9.861-31.682,11.016-50.753
		c-0.109-2.71-0.125-24.979-0.344-27.626c7.755,5.532,15.205,11.462,21.867,18.011c0.344,0.335,0.655,0.683,0.991,1.018
		c-5.5,5.957-11.328,11.378-15.681,15.196c5.742-4.564,11.233-9.364,16.32-14.535c6.443,6.502,12.311,13.497,16.375,21.245
		C392.59,454.202,395.009,463.971,390.063,471.914z"/>
</g>
</svg>
