<?xml version="1.0" encoding="utf-8"?>
<!-- Generator: Adobe Illustrator 16.0.0, SVG Export Plug-In . SVG Version: 6.00 Build 0)  -->
<!DOCTYPE svg PUBLIC "-//W3C//DTD SVG 1.1//EN" "http://www.w3.org/Graphics/SVG/1.1/DTD/svg11.dtd">
<svg version="1.1" id="Layer_1" xmlns="http://www.w3.org/2000/svg" xmlns:xlink="http://www.w3.org/1999/xlink" x="0px" y="0px"
	 width="836px" height="530.5px" viewBox="0 139.5 836 530.5" enable-background="new 0 139.5 836 530.5" xml:space="preserve">
<g>
	<g>
		<path fill="#42B4D6" d="M554.541,225.994l-0.526-0.119l-0.244-0.136c-58.526-33.576-124.696-69.149-135.974-71.627
			c-11.277,2.478-77.463,38.051-135.989,71.627l-0.306,0.136l-0.384,0.119c-0.217,0.109-22.063,11.031-22.063,31.753v77.569
			c27.792,15.288,52.457,29.396,55.161,30.944c4.101,2.147,33.279,18.563,33.279,50.755v47.237
			c34.837,19.565,63.151,34.456,70.335,36.231c7.185-1.775,35.498-16.665,70.335-36.23v-47.238
			c0-32.192,29.187-48.605,33.287-50.753c2.71-1.552,27.368-15.656,55.153-30.941v-77.574
			C576.605,237.25,554.727,226.089,554.541,225.994z"/>
	</g>
	<g>
		<path fill="#007194" d="M347.494,453.858v20.512c32.428,18.215,64.172,35.116,70.335,35.116c6.164,0,37.909-16.899,70.335-35.113
			v-20.316c-47.366,26.824-64.442,34.682-70.193,36.971C412.203,488.731,395.119,480.837,347.494,453.858z"/>
		<path fill="#007194" d="M558.223,218.01c0,0-127.023-72.875-140.394-72.875c-13.365,0-140.389,72.873-140.389,72.873
			s-26.742,13.245-26.742,39.74c0,17.278,0,45.367,0,72.989c5.674,3.097,11.294,6.191,16.713,9.193v-82.182
			c0-14.36,16.213-23.127,17.445-23.797l0.568-0.133l0.748-0.351c0.292-0.166,29.771-17.029,61.281-34.264
			c48.04-26.27,64.859-33.644,70.375-35.706c5.518,2.062,22.268,9.434,70.308,35.709c31.511,17.236,60.92,34.098,61.214,34.264
			l0.324,0.212l1.12,0.267c1.166,0.628,17.453,9.404,17.453,23.799v82.188c5.42-3.002,11.039-6.096,16.714-9.192
			c0-27.624,0-55.714,0-72.992C584.962,231.252,558.223,218.01,558.223,218.01z"/>
	</g>
	<g>
		<path fill="#FFFFFF" d="M518.109,298.237c0,2.282-1.851,4.132-4.133,4.132H321.684c-2.283,0-4.133-1.85-4.133-4.132v-30.733
			c0-2.282,1.851-4.132,4.133-4.132h192.292c2.283,0,4.133,1.85,4.133,4.132V298.237z"/>
	</g>
	<g>
		<path fill="#FFFFFF" d="M518.109,356.73c0,2.283-1.851,4.135-4.133,4.135H321.684c-2.283,0-4.133-1.852-4.133-4.135v-30.729
			c0-2.284,1.851-4.135,4.133-4.135h192.292c2.283,0,4.133,1.851,4.133,4.135V356.73z"/>
	</g>
	<g>
		<path fill="#007194" d="M456.022,385.936c2.292,0,3.591,1.162,3.591,3.445v31.85c0,2.281-1.299,3.702-3.591,3.702h-76.386
			c-2.292,0-3.589-1.421-3.589-3.702V389.38c0-2.282,1.298-3.446,3.589-3.446h76.386V385.936z"/>
	</g>
	<g>
		<circle fill="#42B4D6" cx="338.721" cy="341.795" r="7.799"/>
	</g>
	<g>
		<circle fill="#42B4D6" cx="361.005" cy="341.795" r="7.799"/>
	</g>
	<g>
		<circle fill="#42B4D6" cx="383.289" cy="341.795" r="7.799"/>
	</g>
	<g>
		<circle fill="#42B4D6" cx="405.573" cy="341.795" r="7.799"/>
	</g>
	<g>
		<circle fill="#42B4D6" cx="427.858" cy="341.795" r="7.799"/>
	</g>
	<g>
		<path fill="#76D691" d="M667.831,659.751c-11.852-2.932-80.868-41.552-142.208-78.011c-1.461-1.028-15.87-11.566-15.87-25.608
			V417.015c0-20.723,21.499-31.645,21.717-31.753l0.21-0.119l0.219-0.137c58.523-33.572,124.666-69.149,135.944-71.624
			c11.277,2.475,77.425,38.052,135.951,71.624l0.234,0.137l0.869,0.119c0.185,0.096,22.406,11.256,22.406,31.753v139.116
			c0,13.996-15.002,24.509-16.572,25.614C749.393,618.202,679.687,656.819,667.831,659.751z"/>
	</g>
	<g>
		<path fill="#308A4F" d="M667.831,322.762c5.518,2.065,22.269,9.437,70.311,35.71c31.511,17.236,60.92,34.098,61.211,34.264
			l0.324,0.209l0.075,0.27c1.166,0.628,16.409,9.401,16.409,23.797v139.116c0,7.905-7.991,15.683-11.383,18.12
			c-4.246,2.519-32.826,19.588-63.532,37.033c-50.121,28.476-67.639,36.663-73.533,39.008c-5.896-2.342-23.465-10.527-73.553-38.984
			c-30.709-17.444-59.751-34.539-63.997-37.058c-3.395-2.437-12.054-10.215-12.054-18.12V417.013
			c0-14.354,15.863-23.122,17.098-23.79l0.397-0.137l0.662-0.348c0.294-0.17,29.685-17.008,61.19-34.24
			C645.531,332.203,662.315,324.829,667.831,322.762 M667.831,304.403c-13.364,0-140.038,72.873-140.038,72.873
			s-26.396,13.242-26.396,39.74c0,33.124,0,105.995,0,139.116c0,19.874,19.711,33.124,19.711,33.124s133.534,79.494,146.899,79.494
			c13.37,0,147.339-79.491,147.339-79.491s20.314-13.253,20.314-33.127c0-33.122,0-105.992,0-139.113
			c0-26.497-27.085-39.743-27.085-39.743S681.201,304.403,667.831,304.403L667.831,304.403z"/>
	</g>
	<g>
		<rect x="610.031" y="416.576" fill="#FFFFFF" width="111.421" height="136.491"/>
	</g>
	<g>
		<path fill="#308A4F" d="M713.812,383.148h-90.946c-10.105,0-18.404,8.619-18.404,16.977v173.473
			c0,8.359,8.364,15.681,16.721,15.681h92.63c8.357,0,13.212-7.321,13.212-15.681V400.125
			C727.024,391.77,723.92,383.148,713.812,383.148z M667.831,580.402c-5.535,0-10.023-4.486-10.023-10.022
			s4.488-10.023,10.023-10.023c5.536,0,10.024,4.487,10.024,10.023S673.366,580.402,667.831,580.402z M716.268,550.281H615.603
			l-0.075-130.92h100.74V550.281z"/>
	</g>
	<g>
		<path fill="#76D691" d="M623.96,431.101c0,0,0,10.791,0,15.599c0,4.807,3.762,3.303,3.762,3.303s10.791,0,15.598,0
			c4.805,0,5.71-3.303,5.71-3.303s0-10.794,0-15.599c0-4.807-5.228-3.383-5.228-3.383s-11.273,0-16.079,0
			C622.911,427.718,623.96,431.101,623.96,431.101z"/>
	</g>
	<g>
		<path fill="#FF7954" d="M167.828,659.749c-11.855-2.932-81.568-41.552-142.904-78.014c-1.464-1.023-16.568-11.562-16.568-25.604
			V417.015c0-20.725,22.193-31.646,22.411-31.756l0.559-0.12l0.391-0.136c58.529-33.575,124.758-69.146,136.034-71.627
			c11.277,2.481,77.471,38.052,135.997,71.627l0.256,0.136l0.182,0.12c0.186,0.095,21.721,11.257,21.721,31.756v139.113
			c0,13.996-14.31,24.509-15.877,25.614C248.692,618.202,179.681,656.819,167.828,659.749z"/>
	</g>
	<path fill="#C44A37" d="M77.995,461.144V569.78h178.273V461.144H77.995z M97.494,508.498h8.356v11.142h-8.356V508.498z
		 M119.778,555.852c0,0-7.659,0-14.347,0c-8.914,0-7.938-9.989-7.938-9.989v-15.08h8.356v13.928h13.928V555.852z M119.778,480.643
		H105.85v16.714h-8.356v-16.118c0,0-0.978-8.952,7.938-8.952c6.687,0,14.347,0,14.347,0V480.643z M158.775,555.852h-19.499V544.71
		h19.499V555.852z M158.775,480.643h-19.499v-8.356h19.499V480.643z M197.773,555.852h-22.284V544.71h22.284V555.852z
		 M197.773,480.643h-22.284v-8.356h22.284V480.643z M236.77,545.863c0,0,0.14,9.989-8.775,9.989c-6.685,0-16.294,0-16.294,0V544.71
		h16.713v-13.928h8.356V545.863L236.77,545.863z M236.77,519.64h-8.356v-11.142h8.356V519.64z M236.77,497.356h-8.356v-16.714H211.7
		v-8.356c0,0,9.61,0,16.294,0c8.914,0,8.775,8.952,8.775,8.952V497.356L236.77,497.356z"/>
	<g>
		<path fill="#C44A37" d="M167.828,322.762c5.517,2.062,22.268,9.434,70.307,35.708c31.511,17.235,60.923,34.098,61.214,34.264
			l0.324,0.213l0.772,0.267c1.167,0.628,17.105,9.404,17.105,23.799v139.116c0,7.902-8.688,15.682-12.083,18.12
			c-4.249,2.522-33.213,19.61-63.919,37.058c-50.091,28.456-67.773,36.64-73.668,38.984c-5.893-2.345-23.551-10.527-73.639-38.984
			c-30.709-17.45-59.099-34.542-63.343-37.058c-3.397-2.437-11.4-10.215-11.4-18.117V417.015c0-14.359,15.169-23.13,16.401-23.797
			l0.044-0.133l0.487-0.351c0.294-0.166,29.642-17.029,61.152-34.264C145.624,332.198,162.312,324.823,167.828,322.762
			 M167.828,304.4c-13.367,0-140.737,72.874-140.737,72.874S0,390.518,0,417.015C0,450.14,0,523.01,0,556.129
			c0,19.877,20.404,33.124,20.404,33.124s133.884,79.497,147.25,79.497c13.37,0,146.814-79.494,146.814-79.494
			s19.795-13.25,19.795-33.124c0-33.122,0-105.992,0-139.116c0-26.498-26.393-39.742-26.393-39.742S181.198,304.4,167.828,304.4
			L167.828,304.4z"/>
	</g>
	<g>
		<path fill="#FFFFFF" d="M254.098,391.506H84.902c0,0-15.263-0.197-15.263,13.173v163.183c0,13.996,15.198,13.061,15.198,13.061
			h170.445c0,0,12.13,0.951,12.13-13.044V404.679C267.411,404.679,267.188,391.506,254.098,391.506z M203.344,408.219
			c61.282,0,52.715,0,52.715,0v16.713h-52.715V408.219z M80.78,408.219h111.422v16.713H80.78V408.219z M256.059,566.995H80.78
			V433.289h175.278L256.059,566.995L256.059,566.995z"/>
	</g>
	<g>
		<rect x="97.494" y="444.431" fill="#C44A37" width="41.782" height="8.357"/>
	</g>
	<g>
		<rect x="220.057" y="444.431" fill="#C44A37" width="16.713" height="8.357"/>
	</g>
	<g>
		<rect x="197.773" y="444.431" fill="#C44A37" width="13.929" height="8.357"/>
	</g>
	<g>
		<path fill="#FFFFFF" d="M156.314,533.608c-1.091,0-2.184-0.375-3.077-1.143l-17.809-15.34c-1.045-0.896-1.643-2.201-1.643-3.574
			c0-1.374,0.599-2.679,1.643-3.577l17.809-15.337c1.973-1.703,4.954-1.477,6.657,0.495c1.7,1.976,1.478,4.956-0.498,6.659
			l-13.659,11.759l13.659,11.76c1.976,1.703,2.198,4.683,0.498,6.657C158.958,533.053,157.641,533.608,156.314,533.608z"/>
	</g>
	<g>
		<path fill="#FFFFFF" d="M179.343,533.608c-1.328,0-2.644-0.556-3.58-1.641c-1.7-1.975-1.477-4.954,0.498-6.657l13.659-11.76
			l-13.659-11.762c-1.975-1.7-2.201-4.682-0.498-6.657c1.7-1.975,4.679-2.198,6.657-0.495l17.809,15.337
			c1.042,0.897,1.641,2.203,1.641,3.577s-0.599,2.68-1.641,3.574l-17.809,15.34C181.528,533.233,180.431,533.608,179.343,533.608z"
			/>
	</g>
</g>
</svg>
