<?xml version="1.0" encoding="utf-8"?>
<!-- Generator: Adobe Illustrator 16.0.0, SVG Export Plug-In . SVG Version: 6.00 Build 0)  -->
<!DOCTYPE svg PUBLIC "-//W3C//DTD SVG 1.1//EN" "http://www.w3.org/Graphics/SVG/1.1/DTD/svg11.dtd">
<svg version="1.1" id="Capa_1" xmlns="http://www.w3.org/2000/svg" xmlns:xlink="http://www.w3.org/1999/xlink" x="0px" y="0px"
	 width="144px" height="144px" viewBox="0 0 144 144" enable-background="new 0 0 144 144" xml:space="preserve">
<g>
	<g>
		<path fill="#554F60" d="M125.671,79.348c-1.856-2.424-3.937-4.863-6.216-7.298c2.279-2.434,4.359-4.874,6.216-7.299
			c4.362-5.699,7.302-11.071,8.733-15.968c1.154-3.939,1.883-9.677-1.195-14.646c-4.16-6.717-12.65-8.126-19.039-8.126
			c-5.373,0-11.508,0.941-18.105,2.716c-0.65-2.149-1.354-4.217-2.104-6.187c-2.56-6.703-5.588-12.037-9-15.83
			C81.021,2.337,76.5,0,71.878,0h-0.03c-5.844,0-10.331,3.686-13.066,6.746c-3.4,3.804-6.409,9.161-8.943,15.876
			c-0.729,1.934-1.41,3.961-2.042,6.067c-6.545-1.75-12.633-2.678-17.967-2.678c-6.39,0-14.88,1.41-19.04,8.127
			c-3.077,4.968-2.35,10.708-1.196,14.647c1.433,4.896,4.372,10.272,8.734,15.972c1.855,2.423,3.935,4.862,6.212,7.295
			c-2.277,2.435-4.357,4.871-6.212,7.296c-4.362,5.698-7.301,11.07-8.734,15.969c-1.153,3.938-1.881,9.677,1.196,14.645
			c4.16,6.717,12.65,8.127,19.04,8.127c5.374,0,11.512-0.941,18.113-2.718c0.649,2.14,1.348,4.198,2.098,6.163
			c2.559,6.701,5.587,12.012,9,15.805C62.977,141.711,67.5,144,72.121,144h0.031c5.845,0,10.331-3.641,13.066-6.699
			c3.4-3.805,6.409-9.115,8.942-15.83c0.727-1.926,1.404-3.943,2.033-6.039c6.549,1.754,12.639,2.685,17.977,2.685c0,0,0,0,0.001,0
			c6.39,0,14.878-1.425,19.038-8.14c3.077-4.969,2.35-10.721,1.195-14.66C132.973,90.42,130.033,85.047,125.671,79.348z
			 M114.17,34.193c3.529,0,9.791,0.552,12.084,4.253c2.59,4.183-0.057,12.157-7.08,21.332c-1.648,2.153-3.494,4.324-5.514,6.494
			c-3.814-3.565-8.021-7.081-12.539-10.479c-0.623-6.733-1.623-13.174-2.975-19.146C104.13,35.033,109.574,34.193,114.17,34.193z
			 M90.42,105.055c-0.068-0.023-0.139-0.048-0.207-0.072c-2.98-1.057-6.025-2.27-9.102-3.623c2.209-1.243,4.418-2.549,6.619-3.911
			c1.531-0.947,3.039-1.914,4.522-2.894C91.764,98.193,91.148,101.703,90.42,105.055z M83.422,90.492
			c-3.766,2.332-7.596,4.506-11.426,6.492c-3.829-1.988-7.655-4.162-11.418-6.492c-3.412-2.113-6.703-4.311-9.848-6.567
			c-0.27-3.86-0.414-7.815-0.422-11.83c-0.008-4.033,0.12-8.007,0.376-11.888c3.159-2.268,6.466-4.476,9.895-6.6
			c3.763-2.331,7.591-4.504,11.42-6.489c3.831,1.986,7.66,4.16,11.425,6.492c3.413,2.114,6.704,4.311,9.85,6.568
			c0.27,3.856,0.414,7.805,0.422,11.813c0.008,4.038-0.12,8.016-0.377,11.901C90.156,86.16,86.852,88.368,83.422,90.492z
			 M53.691,105.002c-0.732-3.311-1.352-6.779-1.852-10.373c1.454,0.959,2.932,1.904,4.43,2.832c2.192,1.357,4.393,2.658,6.595,3.898
			c-3.068,1.348-6.105,2.557-9.077,3.608C53.755,104.98,53.723,104.99,53.691,105.002z M42.211,77.375
			c-2.127-1.758-4.157-3.536-6.079-5.325c1.917-1.784,3.939-3.557,6.06-5.31c-0.048,1.777-0.071,3.566-0.067,5.366
			C42.129,73.873,42.158,75.63,42.211,77.375z M53.573,39.058c0.071,0.025,0.143,0.049,0.214,0.075
			c2.976,1.055,6.017,2.265,9.089,3.615c-2.206,1.242-4.411,2.544-6.607,3.904c-1.532,0.949-3.041,1.915-4.526,2.895
			C52.233,45.913,52.845,42.405,53.573,39.058z M90.314,39.095c0.731,3.317,1.353,6.792,1.853,10.392
			c-1.456-0.96-2.935-1.906-4.437-2.835c-2.197-1.361-4.402-2.664-6.608-3.906c3.073-1.35,6.114-2.561,9.091-3.616
			C90.246,39.119,90.279,39.107,90.314,39.095z M101.789,66.729c2.127,1.757,4.154,3.535,6.076,5.323
			c-1.916,1.784-3.938,3.556-6.059,5.308c0.049-1.781,0.071-3.575,0.067-5.379C101.871,70.22,101.842,68.469,101.789,66.729z
			 M57.495,25.514c4.079-10.811,9.451-17.271,14.383-17.281c4.919,0,10.315,6.438,14.438,17.232
			c0.688,1.806,1.332,3.704,1.932,5.678c-5.26,1.827-10.719,4.112-16.248,6.81c-5.577-2.721-11.083-5.022-16.383-6.856
			C56.199,29.156,56.824,27.291,57.495,25.514z M17.747,38.446c2.292-3.701,8.555-4.253,12.084-4.253
			c4.565,0,9.968,0.83,15.907,2.423c-1.337,5.994-2.32,12.462-2.919,19.223c-4.496,3.383-8.681,6.883-12.477,10.433
			c-2.019-2.17-3.866-4.34-5.515-6.494C17.802,50.603,15.156,42.628,17.747,38.446z M29.83,109.906
			c-3.529,0-9.792-0.553-12.083-4.252c-2.591-4.184,0.056-12.158,7.079-21.334c1.647-2.15,3.493-4.32,5.51-6.488
			C34.151,81.4,38.36,84.92,42.882,88.32c0.624,6.729,1.625,13.164,2.977,19.131C39.873,109.066,34.427,109.906,29.83,109.906z
			 M86.506,118.561c-4.08,10.813-9.451,17.258-14.372,17.258h-0.012c-4.919,0-10.317-6.422-14.438-17.215
			c-0.686-1.799-1.327-3.687-1.923-5.648c5.251-1.825,10.702-4.105,16.223-6.801c5.579,2.726,11.084,5.029,16.387,6.865
			C87.793,114.945,87.171,116.797,86.506,118.561z M126.254,105.668c-2.293,3.699-8.554,4.266-12.083,4.266h-0.001
			c-4.566,0-9.973-0.836-15.912-2.434c1.34-6,2.322-12.473,2.924-19.238c4.494-3.383,8.68-6.882,12.476-10.431
			c2.021,2.171,3.868,4.343,5.518,6.497C126.197,93.503,128.844,101.484,126.254,105.668z"/>
	</g>
</g>
</svg>
