<?xml version="1.0" encoding="utf-8"?>
<!-- Generator: Adobe Illustrator 16.0.0, SVG Export Plug-In . SVG Version: 6.00 Build 0)  -->
<!DOCTYPE svg PUBLIC "-//W3C//DTD SVG 1.1//EN" "http://www.w3.org/Graphics/SVG/1.1/DTD/svg11.dtd">
<svg version="1.1" id="Layer_1" xmlns="http://www.w3.org/2000/svg" xmlns:xlink="http://www.w3.org/1999/xlink" x="0px" y="0px"
	 width="100px" height="100px" viewBox="0 0 100 100" enable-background="new 0 0 100 100" xml:space="preserve">
<g>
	<path d="M78.808,21.192C70.883,13.268,61.191,9.25,50,9.25c-11.191,0-20.883,4.018-28.808,11.942
		C13.268,29.117,9.25,38.809,9.25,50s4.018,20.883,11.941,28.808C29.116,86.732,38.809,90.75,50,90.75
		c6.15,0,11.884-1.211,17.048-3.603c1.444-0.686,2.791-1.417,4.119-2.234c2.705-1.686,5.275-3.74,7.641-6.104
		C86.732,70.883,90.75,61.191,90.75,50S86.732,29.117,78.808,21.192z M77.747,77.747c-2.285,2.284-4.765,4.267-7.37,5.891
		c-1.279,0.787-2.578,1.492-3.966,2.151C61.382,88.118,56.014,89.25,50,89.25c-10.779,0-20.114-3.871-27.747-11.503
		S10.75,60.779,10.75,50s3.87-20.114,11.503-27.747S39.221,10.75,50,10.75c10.779,0,20.115,3.871,27.748,11.503
		S89.25,39.221,89.25,50S85.38,70.114,77.747,77.747z"/>
	<path d="M47.045,57.533c-0.494,0.92-1.096,1.729-1.79,2.402c-0.694,0.673-1.457,1.23-2.268,1.655
		c-0.814,0.426-1.67,0.751-2.546,0.965c-2.523,0.616-4.871,0.338-6.921-0.674c-1.349-0.665-2.542-1.574-3.548-2.703
		c-1.008-1.129-1.813-2.453-2.396-3.933c-0.581-1.473-0.875-3.042-0.875-4.665c0-1.456,0.247-2.925,0.734-4.369
		c0.484-1.438,1.211-2.746,2.16-3.889c0.943-1.136,2.116-2.068,3.488-2.768c1.364-0.696,2.941-1.049,4.687-1.049
		c0.801,0,1.623,0.09,2.44,0.268c0.813,0.178,1.612,0.465,2.376,0.854c0.758,0.387,1.47,0.905,2.115,1.54
		c0.644,0.635,1.222,1.426,1.718,2.349l0.147,0.273l1.403-0.444l-0.182-0.388c-0.812-1.731-2.069-3.168-3.739-4.272
		c-1.673-1.108-3.736-1.669-6.132-1.669c-2.013,0-3.834,0.405-5.413,1.204c-1.571,0.795-2.911,1.846-3.982,3.123
		c-1.066,1.272-1.894,2.722-2.458,4.308c-0.564,1.585-0.85,3.206-0.85,4.818c0,1.712,0.312,3.416,0.926,5.063
		c0.613,1.646,1.477,3.137,2.566,4.433c1.093,1.3,2.425,2.369,3.958,3.176c1.544,0.813,3.25,1.225,5.069,1.225
		c1.004,0,2.056-0.134,3.126-0.399c1.07-0.266,2.098-0.669,3.054-1.199c0.958-0.532,1.84-1.199,2.622-1.984
		c0.79-0.792,1.422-1.712,1.88-2.734l0.18-0.403l-1.411-0.374L47.045,57.533z"/>
	<polygon points="63.623,62.187 53.371,37.142 51.823,37.142 62.985,64.49 64.263,64.49 75.424,37.142 73.842,37.142 	"/>
</g>
</svg>
