<?xml version="1.0" encoding="utf-8"?>
<!-- Generator: Adobe Illustrator 24.2.2, SVG Export Plug-In . SVG Version: 6.00 Build 0)  -->
<svg version="1.1" id="Layer_1" xmlns="http://www.w3.org/2000/svg" xmlns:xlink="http://www.w3.org/1999/xlink" x="0px" y="0px"
	 viewBox="0 0 1653.2 1433.9" style="enable-background:new 0 0 1653.2 1433.9;" xml:space="preserve">
<style type="text/css">
	.st0{fill:#FFF;}
</style>
<path class="st0" d="M1470.3,529.7c-0.1-0.9-61.4-261.9-61.4-261.9s45.7-243.7,45.8-244c2.3-12.5-9.8-23.3-21.9-19.6L989,141.8
	c0,0-443.2-137.4-443.7-137.6c-12.1-3.7-24.2,7.2-21.9,19.6l45.8,244l-59.4,252.5c-9,5.5-262.8,160.2-273.5,167.5
	c-4,2.7-6.5,6.8-7,11.6c0,0.2-46.4,540.9-46.5,541.9c-0.4,5,1.2,10,4.7,13.6L342,1424.8c3.3,3.6,7.9,5.6,12.7,5.6h928.4
	c16.5,0,23.4-22,9.7-31.4l-287.5-196.7l183.4-504.5c0,0,272.3-151.2,272.6-151.4C1467.2,543.1,1470.9,536.7,1470.3,529.7
	L1470.3,529.7z M1421.5,471.6l-269.9-292.4l224.9,101.2L1421.5,471.6z M1415.6,45.3l-37.2,198.2L1130.6,132L1415.6,45.3z
	 M562.4,45.3l285,86.7L599.5,243.6L562.4,45.3z M601.5,280.4l224.9-101.2L556.5,471.6L601.5,280.4z M901.2,148.8l70.5,23.5v657.9
	L815.5,673.8c-1.1-1.1-2.4-2.1-3.8-2.9L552.2,526.8L901.2,148.8z M260.8,732.4l399.7,275.7l-441.1,206.7L260.8,732.4z M362.2,1396.1
	l-133.9-147.3l455.5-213.5l97.1,360.8L362.2,1396.1L362.2,1396.1z M1227.4,1396.1H816.5l-92.8-344.6L1227.4,1396.1z M975.9,1182.3
	l-698.1-480l247.4-151.2l267.7,148.7l184,184c1.6,1.6,3.5,2.9,5.6,3.7l0,0c4,1.7,9.1,1.7,13.1,0l0,0c2-0.8,3.9-2.1,5.6-3.7L1132,753
	L975.9,1182.3z M1166.3,671L1166.3,671c-1.5,0.9-2.9,1.9-4.1,3.1l-156.1,156.1V172.3l70.5-23.5l349,378.1L1166.3,671z"/>
</svg>
